<?xml version="1.0" encoding="utf-8"?>
<!-- Generator: Adobe Illustrator 24.1.2, SVG Export Plug-In . SVG Version: 6.00 Build 0)  -->
<svg version="1.1" id="Layer_1" xmlns="http://www.w3.org/2000/svg" xmlns:xlink="http://www.w3.org/1999/xlink" x="0px" y="0px"
	 viewBox="0 0 603.6 214.3" style="enable-background:new 0 0 603.6 214.3;" xml:space="preserve">
<style type="text/css">
	.st0{fill:#808285;}
	.st1{fill:#ED1C24;}
	.st2{fill:#BE1E2D;}
	.st3{fill:#4D4D4F;}
	.st4{fill:#6D6E71;}
	.st5{fill:#636466;}
	.st6{enable-background:new    ;}
</style>
<g>
	<path class="st0" d="M90.7,59.3L67.3,35.8c-0.2-0.2-0.4-0.2-0.6-0.2c-0.3,0.1-0.4,0.3-0.4,0.5c0,0,0,15.6,0,15.7
		c0,0.9,0.4,1.7,1,2.3l0,0l14.3,14.3L90.7,59.3z"/>
	<path class="st1" d="M74.8,93.8"/>
	<path class="st2" d="M74.9,93.8"/>
	<path class="st3" d="M51.3,51.6c-0.2-0.2-0.4-0.2-0.6-0.2c-0.2,0.1-0.4,0.3-0.5,0.5v15.6c-0.1,1.4,1,2.4,1,2.4L74,92.6
		c0.1,0.1,0.4,0.4,0.9,0.4V75.1L51.3,51.6z"/>
	<path class="st0" d="M90.7,77.6l-9.1-9.2l-6.7,6.7v17.8c0.6,0,1-0.5,1-0.5L90.7,77.6z"/>
	<path class="st0" d="M115.2,36.2c0-0.4-0.3-0.6-0.6-0.6c-0.1,0-0.3,0.1-0.4,0.2L90.7,59.3v18.4l23.1-23.1l0,0
		c0.8-0.7,1.3-1.6,1.3-2.5L115.2,36.2L115.2,36.2z"/>
	<polygon class="st3" points="90.7,59.3 81.6,68.4 90.7,77.6 	"/>
	<path class="st0" d="M52.4,97.8l-23.5,23.4c-0.2,0.2-0.2,0.4-0.2,0.6c0.1,0.3,0.3,0.4,0.5,0.4c0,0,15.6,0,15.7,0
		c0.9,0,1.7-0.4,2.3-1l0,0L61.6,107L52.4,97.8z"/>
	<path class="st1" d="M86.9,113.7"/>
	<path class="st2" d="M86.9,113.7"/>
	<path class="st3" d="M44.7,137.2c-0.2,0.2-0.2,0.4-0.2,0.6c0.1,0.2,0.3,0.4,0.5,0.5h15.6c1.4,0.1,2.4-1,2.4-1l22.6-22.7
		c0.1-0.1,0.4-0.4,0.4-0.9H68.3L44.7,137.2z"/>
	<path class="st4" d="M70.8,97.8l-9.2,9.1l6.7,6.7h17.8c0-0.6-0.5-1-0.5-1L70.8,97.8z"/>
	<path class="st0" d="M29.3,73.4c-0.4,0-0.6,0.3-0.6,0.6c0,0.1,0.1,0.3,0.2,0.4l23.5,23.4h18.4L47.7,74.7l0,0
		c-0.7-0.8-1.6-1.3-2.5-1.3C45.2,73.4,29.3,73.4,29.3,73.4z"/>
	<polygon class="st3" points="52.4,97.8 61.6,107 70.8,97.8 	"/>
	<path class="st0" d="M90.9,136.3l23.4,23.5c0.2,0.2,0.4,0.2,0.6,0.2c0.3-0.1,0.4-0.3,0.4-0.5c0,0,0-15.6,0-15.7
		c0-0.9-0.4-1.7-1-2.3l0,0L100,127.2L90.9,136.3z"/>
	<path class="st3" d="M130.3,144c0.2,0.2,0.4,0.2,0.6,0.2c0.2,0,0.4-0.3,0.5-0.5v-15.6c0.1-1.4-1-2.4-1-2.4L107.6,103
		c-0.1-0.1-0.4-0.4-0.9-0.4v17.8L130.3,144z"/>
	<path class="st0" d="M90.9,117.9l9.1,9.2l6.7-6.7v-17.8c-0.6,0-1,0.5-1,0.5L90.9,117.9z"/>
	<path class="st0" d="M66.4,159.4c0,0.4,0.3,0.6,0.6,0.6c0.1,0,0.3-0.1,0.4-0.2l23.4-23.5v-18.4l-23,23.1l0,0
		c-0.8,0.7-1.3,1.6-1.3,2.5L66.4,159.4L66.4,159.4z"/>
	<polygon class="st3" points="90.9,136.3 100,127.2 90.9,117.9 	"/>
	<path class="st0" d="M129.5,97.7L153,74.3c0.2-0.2,0.2-0.4,0.2-0.6c-0.1-0.3-0.3-0.4-0.5-0.4c0,0-15.6,0-15.7,0
		c-0.9,0-1.7,0.4-2.3,1l0,0l-14.3,14.3L129.5,97.7z"/>
	<path class="st1" d="M95,81.9"/>
	<path class="st2" d="M95,81.9"/>
	<path class="st3" d="M137.2,58.4c0.2-0.2,0.2-0.4,0.2-0.6c-0.1-0.2-0.3-0.4-0.5-0.5h-15.6c-1.4-0.1-2.4,1-2.4,1L96.2,81
		c-0.1,0.1-0.4,0.4-0.4,0.9h17.8L137.2,58.4z"/>
	<path class="st0" d="M111.1,97.7l9.2-9.1l-6.7-6.7H95.8c0,0.6,0.5,1,0.5,1L111.1,97.7z"/>
	<path class="st0" d="M152.6,122.2c0.4,0,0.6-0.3,0.6-0.6c0-0.1-0.1-0.3-0.2-0.4l-23.5-23.4h-18.4l23.1,23.1l0,0
		c0.7,0.8,1.6,1.3,2.5,1.3H152.6z"/>
	<polygon class="st3" points="129.5,97.7 120.4,88.6 111.1,97.7 	"/>
</g>
<g>
	<polygon class="st5" points="170.3,73.6 207.7,73.6 207.7,83.4 181.2,83.4 181.2,93.8 204.6,93.8 204.6,103.7 181.2,103.7 
		181.2,122.7 170.3,122.7 	"/>
	<path class="st5" d="M226.7,73.2h10l21.1,49.5h-11.3l-4.5-11h-20.8l-4.5,11h-11L226.7,73.2z M238.1,102.1l-6.5-15.9l-6.5,15.9
		H238.1z"/>
	<polygon class="st5" points="262.7,73.6 272.6,73.6 295.7,103.8 295.7,73.6 306.3,73.6 306.3,122.7 297.1,122.7 273.3,91.4 
		273.3,122.7 262.7,122.7 	"/>
	<path class="st5" d="M314,115.5l6.4-7.7c4.4,3.6,9.1,6,14.7,6c4.4,0,7.1-1.8,7.1-4.6v-0.1c0-2.7-1.7-4.1-9.9-6.2
		c-9.9-2.5-16.3-5.3-16.3-15v-0.1c0-8.9,7.2-14.8,17.2-14.8c7.2,0,13.3,2.3,18.2,6.3l-5.6,8.1c-4.4-3-8.6-4.8-12.8-4.8
		c-4.1,0-6.3,1.9-6.3,4.3V87c0,3.2,2.1,4.3,10.6,6.5c10,2.6,15.6,6.2,15.6,14.7v0.1c0,9.8-7.4,15.2-18,15.2
		C327.3,123.4,319.8,120.8,314,115.5"/>
	<polygon class="st5" points="361.4,73.6 372.2,73.6 372.2,93 392.2,93 392.2,73.6 403,73.6 403,122.7 392.2,122.7 392.2,103 
		372.2,103 372.2,122.7 361.4,122.7 	"/>
	<path class="st5" d="M429.8,73.2h10l21.1,49.5h-11.3l-4.5-11h-20.8l-4.5,11h-11L429.8,73.2z M441.2,102.1l-6.5-15.9l-6.5,15.9
		H441.2z"/>
	<polygon class="st5" points="455.9,73.6 467.5,73.6 477.7,106.8 488.7,73.4 498,73.4 509,106.8 519.1,73.6 530.4,73.6 513.7,123 
		504.3,123 493.2,90.9 482.1,123 472.7,123 	"/>
	<polygon class="st5" points="536.7,73.6 573.7,73.6 573.7,83.2 547.4,83.2 547.4,93.1 570.6,93.1 570.6,102.7 547.4,102.7 
		547.4,113.1 574.1,113.1 574.1,122.7 536.7,122.7 	"/>
</g>
<g class="st6">
	<path class="st5" d="M170.6,145.4h4.1V164h-4.1V145.4z"/>
	<path class="st5" d="M178.8,149.8h4v2c0.9-1.2,2.1-2.3,4.2-2.3c3,0,4.8,2,4.8,5.3v9.2h-4v-7.9c0-1.9-0.9-2.9-2.4-2.9
		c-1.5,0-2.5,1-2.5,2.9v7.9h-4V149.8z"/>
	<path class="st5" d="M196,160v-6.7h-1.7v-3.4h1.7v-3.6h4v3.6h3.3v3.4H200v6.1c0,0.9,0.4,1.4,1.3,1.4c0.7,0,1.4-0.2,2-0.5v3.2
		c-0.8,0.5-1.8,0.8-3.2,0.8C197.7,164.2,196,163.3,196,160z"/>
	<path class="st5" d="M205.3,157L205.3,157c0-4.1,2.9-7.4,7-7.4c4.7,0,6.9,3.7,6.9,7.7c0,0.3,0,0.7-0.1,1.1h-9.9
		c0.4,1.8,1.7,2.8,3.5,2.8c1.4,0,2.3-0.4,3.4-1.5l2.3,2c-1.3,1.6-3.2,2.7-5.8,2.7C208.4,164.3,205.3,161.3,205.3,157z M215.3,155.8
		c-0.2-1.8-1.3-3-3-3c-1.7,0-2.8,1.2-3.1,3H215.3z"/>
	<path class="st5" d="M222.2,149.8h4v2.9c0.8-2,2.1-3.2,4.5-3.1v4.2h-0.2c-2.7,0-4.3,1.6-4.3,5v5.2h-4V149.8z"/>
	<path class="st5" d="M231.8,159.9L231.8,159.9c0-3.2,2.4-4.6,5.7-4.6c1.4,0,2.5,0.2,3.5,0.6v-0.2c0-1.7-1-2.6-3-2.6
		c-1.5,0-2.6,0.3-3.9,0.8l-1-3.1c1.6-0.7,3.1-1.1,5.5-1.1c2.2,0,3.8,0.6,4.8,1.6c1.1,1.1,1.5,2.6,1.5,4.5v8.2h-3.9v-1.5
		c-1,1.1-2.3,1.8-4.3,1.8C234,164.3,231.8,162.7,231.8,159.9z M241,159v-0.7c-0.7-0.3-1.6-0.5-2.6-0.5c-1.7,0-2.8,0.7-2.8,2v0.1
		c0,1.1,0.9,1.7,2.2,1.7C239.7,161.5,241,160.4,241,159z"/>
	<path class="st5" d="M247.6,157L247.6,157c0-4.1,3.1-7.4,7.4-7.4c2.7,0,4.3,0.9,5.7,2.4l-2.5,2.7c-0.9-1-1.8-1.6-3.2-1.6
		c-2,0-3.4,1.8-3.4,3.9v0.1c0,2.2,1.4,3.9,3.6,3.9c1.4,0,2.3-0.6,3.3-1.5l2.4,2.4c-1.4,1.5-3,2.6-5.8,2.6
		C250.7,164.3,247.6,161,247.6,157z"/>
	<path class="st5" d="M264.1,160v-6.7h-1.7v-3.4h1.7v-3.6h4v3.6h3.3v3.4h-3.3v6.1c0,0.9,0.4,1.4,1.3,1.4c0.7,0,1.4-0.2,2-0.5v3.2
		c-0.8,0.5-1.8,0.8-3.2,0.8C265.8,164.2,264.1,163.3,264.1,160z"/>
	<path class="st5" d="M274.5,144.7h4.2v3.6h-4.2V144.7z M274.6,149.8h4V164h-4V149.8z"/>
	<path class="st5" d="M281.2,149.8h4.3l3.2,9.5l3.2-9.5h4.2l-5.6,14.3h-3.7L281.2,149.8z"/>
	<path class="st5" d="M296.8,157L296.8,157c0-4.1,2.9-7.4,7-7.4c4.7,0,6.9,3.7,6.9,7.7c0,0.3,0,0.7-0.1,1.1h-9.9
		c0.4,1.8,1.7,2.8,3.5,2.8c1.4,0,2.3-0.4,3.4-1.5l2.3,2c-1.3,1.6-3.2,2.7-5.8,2.7C300,164.3,296.8,161.3,296.8,157z M306.9,155.8
		c-0.2-1.8-1.3-3-3-3c-1.7,0-2.8,1.2-3.1,3H306.9z"/>
	<path class="st5" d="M322.2,145.4h4.4l4.9,7.8l4.9-7.8h4.4V164h-4.1v-12.1l-5.2,7.9h-0.1l-5.2-7.8v12h-4V145.4z"/>
	<path class="st5" d="M344,157L344,157c0-4.1,2.9-7.4,7-7.4c4.7,0,6.9,3.7,6.9,7.7c0,0.3,0,0.7-0.1,1.1H348c0.4,1.8,1.7,2.8,3.5,2.8
		c1.4,0,2.3-0.4,3.4-1.5l2.3,2c-1.3,1.6-3.2,2.7-5.8,2.7C347.2,164.3,344,161.3,344,157z M354.1,155.8c-0.2-1.8-1.3-3-3-3
		c-1.7,0-2.8,1.2-3.1,3H354.1z"/>
	<path class="st5" d="M360.3,156.9L360.3,156.9c0-4.8,3.1-7.4,6.5-7.4c2.1,0,3.5,1,4.4,2.1v-7h4V164h-4v-2c-1,1.3-2.3,2.3-4.4,2.3
		C363.5,164.3,360.3,161.7,360.3,156.9z M371.3,156.9L371.3,156.9c0-2.4-1.6-4-3.4-4s-3.5,1.5-3.5,3.9v0.1c0,2.4,1.6,3.9,3.5,3.9
		S371.3,159.3,371.3,156.9z"/>
	<path class="st5" d="M378.9,144.7h4.2v3.6h-4.2V144.7z M379.1,149.8h4V164h-4V149.8z"/>
	<path class="st5" d="M386,159.9L386,159.9c0-3.2,2.4-4.6,5.7-4.6c1.4,0,2.5,0.2,3.5,0.6v-0.2c0-1.7-1-2.6-3-2.6
		c-1.5,0-2.6,0.3-3.9,0.8l-1-3.1c1.6-0.7,3.1-1.1,5.5-1.1c2.2,0,3.8,0.6,4.8,1.6c1.1,1.1,1.5,2.6,1.5,4.5v8.2h-3.9v-1.5
		c-1,1.1-2.3,1.8-4.3,1.8C388.2,164.3,386,162.7,386,159.9z M395.3,159v-0.7c-0.7-0.3-1.6-0.5-2.6-0.5c-1.7,0-2.8,0.7-2.8,2v0.1
		c0,1.1,0.9,1.7,2.2,1.7C394,161.5,395.3,160.4,395.3,159z"/>
	<path class="st5" d="M410.9,145.4h7.2c5.8,0,9.9,4,9.9,9.2v0.1c0,5.2-4,9.3-9.9,9.3h-7.2V145.4z M418.2,160.3
		c3.3,0,5.6-2.3,5.6-5.5v-0.1c0-3.3-2.3-5.6-5.6-5.6H415v11.2H418.2z"/>
	<path class="st5" d="M430.5,157L430.5,157c0-4.1,2.9-7.4,7-7.4c4.7,0,6.9,3.7,6.9,7.7c0,0.3,0,0.7-0.1,1.1h-9.9
		c0.4,1.8,1.7,2.8,3.5,2.8c1.4,0,2.3-0.4,3.4-1.5l2.3,2c-1.3,1.6-3.2,2.7-5.8,2.7C433.7,164.3,430.5,161.3,430.5,157z M440.6,155.8
		c-0.2-1.8-1.3-3-3-3c-1.7,0-2.8,1.2-3.1,3H440.6z"/>
	<path class="st5" d="M445.5,149.8h4.3l3.2,9.5l3.2-9.5h4.2l-5.6,14.3h-3.7L445.5,149.8z"/>
	<path class="st5" d="M461.2,157L461.2,157c0-4.1,2.9-7.4,7-7.4c4.7,0,6.9,3.7,6.9,7.7c0,0.3,0,0.7-0.1,1.1h-9.9
		c0.4,1.8,1.7,2.8,3.5,2.8c1.4,0,2.3-0.4,3.4-1.5l2.3,2c-1.3,1.6-3.2,2.7-5.8,2.7C464.4,164.3,461.2,161.3,461.2,157z M471.2,155.8
		c-0.2-1.8-1.3-3-3-3c-1.7,0-2.8,1.2-3.1,3H471.2z"/>
	<path class="st5" d="M478.3,144.7h4V164h-4V144.7z"/>
	<path class="st5" d="M485.5,157L485.5,157c0-4.1,3.3-7.4,7.7-7.4c4.4,0,7.7,3.3,7.7,7.3v0.1c0,4.1-3.3,7.4-7.7,7.4
		C488.7,164.3,485.5,161.1,485.5,157z M496.9,157L496.9,157c0-2.1-1.5-4-3.7-4c-2.3,0-3.7,1.8-3.7,3.9v0.1c0,2.1,1.5,3.9,3.7,3.9
		C495.5,160.8,496.9,159.1,496.9,157z"/>
	<path class="st5" d="M503.8,149.8h4v2c1-1.3,2.3-2.3,4.4-2.3c3.3,0,6.5,2.6,6.5,7.3v0.1c0,4.7-3.1,7.3-6.5,7.3
		c-2.1,0-3.5-1-4.4-2.1v6.1h-4V149.8z M514.7,156.9L514.7,156.9c0-2.4-1.6-4-3.5-4s-3.4,1.6-3.4,3.9v0.1c0,2.4,1.6,3.9,3.4,3.9
		S514.7,159.3,514.7,156.9z"/>
	<path class="st5" d="M521.6,149.8h4v2c0.9-1.2,2.1-2.3,4.2-2.3c1.9,0,3.3,0.8,4,2.3c1.2-1.5,2.7-2.3,4.7-2.3c3,0,4.8,1.8,4.8,5.2
		v9.2h-4v-7.9c0-1.9-0.8-2.9-2.4-2.9s-2.4,1-2.4,2.9v7.9h-4v-7.9c0-1.9-0.8-2.9-2.4-2.9s-2.4,1-2.4,2.9v7.9h-4V149.8z"/>
	<path class="st5" d="M546.1,157L546.1,157c0-4.1,2.9-7.4,7-7.4c4.7,0,6.9,3.7,6.9,7.7c0,0.3,0,0.7-0.1,1.1h-9.9
		c0.4,1.8,1.7,2.8,3.5,2.8c1.4,0,2.3-0.4,3.4-1.5l2.3,2c-1.3,1.6-3.2,2.7-5.8,2.7C549.3,164.3,546.1,161.3,546.1,157z M556.1,155.8
		c-0.2-1.8-1.3-3-3-3c-1.7,0-2.8,1.2-3.1,3H556.1z"/>
	<path class="st5" d="M563.1,149.8h4v2c0.9-1.2,2.1-2.3,4.2-2.3c3,0,4.8,2,4.8,5.3v9.2h-4v-7.9c0-1.9-0.9-2.9-2.4-2.9
		s-2.5,1-2.5,2.9v7.9h-4V149.8z"/>
	<path class="st5" d="M580.2,160v-6.7h-1.7v-3.4h1.7v-3.6h4v3.6h3.3v3.4h-3.3v6.1c0,0.9,0.4,1.4,1.3,1.4c0.7,0,1.4-0.2,2-0.5v3.2
		c-0.8,0.5-1.8,0.8-3.2,0.8C581.9,164.2,580.2,163.3,580.2,160z"/>
</g>
<g class="st6">
	<path class="st5" d="M169.1,192.9l2.8-2.7c1.3,1.4,2.6,2.2,4.5,2.2c1.5,0,2.6-0.9,2.6-2.3v-0.1c0-1.5-1.4-2.4-3.6-2.4h-1.7
		l-0.6-2.6l4.4-4.5h-7.3v-3.5h12.5v3.1l-4.7,4.5c2.5,0.4,5,1.8,5,5.2v0.1c0,3.5-2.5,6.1-6.7,6.1C173,196.1,170.7,194.8,169.1,192.9z
		"/>
	<path class="st5" d="M186.8,177.2h7.2c5.8,0,9.9,4,9.9,9.2v0.1c0,5.2-4,9.3-9.9,9.3h-7.2V177.2z M194.1,192.1
		c3.3,0,5.6-2.3,5.6-5.5v-0.1c0-3.3-2.3-5.6-5.6-5.6h-3.2v11.2H194.1z"/>
	<path class="st5" d="M213.9,177.2h4.5l4.9,13.1l4.9-13.1h4.4l-7.5,18.7h-3.6L213.9,177.2z"/>
	<path class="st5" d="M234.5,176.5h4.2v3.6h-4.2V176.5z M234.6,181.6h4v14.2h-4V181.6z"/>
	<path class="st5" d="M241.3,193.9l1.7-2.7c1.5,1.1,3.2,1.7,4.5,1.7c1.2,0,1.7-0.4,1.7-1.1v-0.1c0-0.9-1.4-1.2-2.9-1.6
		c-2-0.6-4.2-1.5-4.2-4.3v-0.1c0-2.9,2.3-4.5,5.2-4.5c1.8,0,3.8,0.6,5.3,1.6l-1.5,2.8c-1.4-0.8-2.8-1.3-3.8-1.3c-1,0-1.5,0.4-1.5,1
		v0.1c0,0.8,1.4,1.2,2.9,1.7c2,0.7,4.3,1.6,4.3,4.2v0.1c0,3.2-2.4,4.6-5.4,4.6C245.4,196.1,243.2,195.4,241.3,193.9z"/>
	<path class="st5" d="M255.6,190.8v-9.2h4v7.9c0,1.9,0.9,2.9,2.4,2.9c1.5,0,2.5-1,2.5-2.9v-7.9h4v14.2h-4v-2
		c-0.9,1.2-2.1,2.3-4.2,2.3C257.4,196.1,255.6,194.1,255.6,190.8z"/>
	<path class="st5" d="M271.4,191.7L271.4,191.7c0-3.2,2.4-4.6,5.7-4.6c1.4,0,2.5,0.2,3.5,0.6v-0.2c0-1.7-1-2.6-3-2.6
		c-1.5,0-2.6,0.3-3.9,0.8l-1-3.1c1.6-0.7,3.1-1.1,5.5-1.1c2.2,0,3.8,0.6,4.8,1.6c1.1,1.1,1.5,2.6,1.5,4.5v8.2h-3.9v-1.5
		c-1,1.1-2.3,1.8-4.3,1.8C273.6,196.1,271.4,194.5,271.4,191.7z M280.6,190.8v-0.7c-0.7-0.3-1.6-0.5-2.6-0.5c-1.7,0-2.8,0.7-2.8,2
		v0.1c0,1.1,0.9,1.7,2.2,1.7C279.4,193.3,280.6,192.2,280.6,190.8z"/>
	<path class="st5" d="M288.1,176.5h4v19.3h-4V176.5z"/>
	<path class="st5" d="M296,176.5h4.2v3.6H296V176.5z M296.1,181.6h4v14.2h-4V181.6z"/>
	<path class="st5" d="M303.4,193l7.3-8.1h-7.1v-3.3h12.1v2.8l-7.4,8.1h7.4v3.3h-12.4V193z"/>
	<path class="st5" d="M318,191.7L318,191.7c0-3.2,2.4-4.6,5.7-4.6c1.4,0,2.5,0.2,3.5,0.6v-0.2c0-1.7-1-2.6-3-2.6
		c-1.5,0-2.6,0.3-3.9,0.8l-1-3.1c1.6-0.7,3.1-1.1,5.5-1.1c2.2,0,3.8,0.6,4.8,1.6c1.1,1.1,1.5,2.6,1.5,4.5v8.2h-3.9v-1.5
		c-1,1.1-2.3,1.8-4.3,1.8C320.2,196.1,318,194.5,318,191.7z M327.2,190.8v-0.7c-0.7-0.3-1.6-0.5-2.6-0.5c-1.7,0-2.8,0.7-2.8,2v0.1
		c0,1.1,0.9,1.7,2.2,1.7C326,193.3,327.2,192.2,327.2,190.8z"/>
	<path class="st5" d="M335.1,191.8V185h-1.7v-3.4h1.7V178h4v3.6h3.3v3.4h-3.3v6.1c0,0.9,0.4,1.4,1.3,1.4c0.7,0,1.4-0.2,2-0.5v3.2
		c-0.8,0.5-1.8,0.8-3.2,0.8C336.7,196,335.1,195.1,335.1,191.8z"/>
	<path class="st5" d="M345.5,176.5h4.2v3.6h-4.2V176.5z M345.6,181.6h4v14.2h-4V181.6z"/>
	<path class="st5" d="M352.7,188.8L352.7,188.8c0-4.1,3.3-7.4,7.7-7.4c4.4,0,7.7,3.3,7.7,7.3v0.1c0,4.1-3.3,7.4-7.7,7.4
		C356,196.1,352.7,192.9,352.7,188.8z M364.1,188.8L364.1,188.8c0-2.1-1.5-4-3.7-4c-2.3,0-3.7,1.8-3.7,3.9v0.1
		c0,2.1,1.5,3.9,3.7,3.9C362.7,192.6,364.1,190.9,364.1,188.8z"/>
	<path class="st5" d="M371,181.6h4v2c0.9-1.2,2.1-2.3,4.2-2.3c3,0,4.8,2,4.8,5.3v9.2h-4v-7.9c0-1.9-0.9-2.9-2.4-2.9s-2.5,1-2.5,2.9
		v7.9h-4V181.6z"/>
</g>
</svg>
