<?xml version="1.0" encoding="utf-8"?>
<!-- Generator: Adobe Illustrator 24.1.2, SVG Export Plug-In . SVG Version: 6.00 Build 0)  -->
<svg version="1.1" id="Layer_1" xmlns="http://www.w3.org/2000/svg" xmlns:xlink="http://www.w3.org/1999/xlink" x="0px" y="0px"
	 viewBox="0 0 603.6 214.3" style="enable-background:new 0 0 603.6 214.3;" xml:space="preserve">
<style type="text/css">
	.st0{enable-background:new    ;}
	.st1{fill:#636466;}
	.st2{fill:#808285;}
	.st3{fill:#ED1C24;}
	.st4{fill:#BE1E2D;}
	.st5{fill:#4D4D4F;}
	.st6{fill:#6D6E71;}
	.st7{fill:#636569;}
	.st8{fill:#E1251B;}
	.st9{fill:#EC1C24;}
	.st10{fill:#B2292E;}
</style>
<g class="st0">
	<path class="st1" d="M170.6,145.4h4.1V164h-4.1V145.4z"/>
	<path class="st1" d="M178.8,149.8h4v2c0.9-1.2,2.1-2.3,4.2-2.3c3,0,4.8,2,4.8,5.3v9.2h-4v-7.9c0-1.9-0.9-2.9-2.4-2.9
		s-2.5,1-2.5,2.9v7.9h-4v-14.2H178.8z"/>
	<path class="st1" d="M196,160v-6.7h-1.7v-3.4h1.7v-3.6h4v3.6h3.3v3.4H200v6.1c0,0.9,0.4,1.4,1.3,1.4c0.7,0,1.4-0.2,2-0.5v3.2
		c-0.8,0.5-1.8,0.8-3.2,0.8C197.7,164.2,196,163.3,196,160z"/>
	<path class="st1" d="M205.3,157L205.3,157c0-4.1,2.9-7.4,7-7.4c4.7,0,6.9,3.7,6.9,7.7c0,0.3,0,0.7-0.1,1.1h-9.9
		c0.4,1.8,1.7,2.8,3.5,2.8c1.4,0,2.3-0.4,3.4-1.5l2.3,2c-1.3,1.6-3.2,2.7-5.8,2.7C208.4,164.3,205.3,161.3,205.3,157z M215.3,155.8
		c-0.2-1.8-1.3-3-3-3s-2.8,1.2-3.1,3H215.3z"/>
	<path class="st1" d="M222.2,149.8h4v2.9c0.8-2,2.1-3.2,4.5-3.1v4.2h-0.2c-2.7,0-4.3,1.6-4.3,5v5.2h-4V149.8z"/>
	<path class="st1" d="M231.8,159.9L231.8,159.9c0-3.2,2.4-4.6,5.7-4.6c1.4,0,2.5,0.2,3.5,0.6v-0.2c0-1.7-1-2.6-3-2.6
		c-1.5,0-2.6,0.3-3.9,0.8l-1-3.1c1.6-0.7,3.1-1.1,5.5-1.1c2.2,0,3.8,0.6,4.8,1.6c1.1,1.1,1.5,2.6,1.5,4.5v8.2H241v-1.5
		c-1,1.1-2.3,1.8-4.3,1.8C234,164.3,231.8,162.7,231.8,159.9z M241,159v-0.7c-0.7-0.3-1.6-0.5-2.6-0.5c-1.7,0-2.8,0.7-2.8,2v0.1
		c0,1.1,0.9,1.7,2.2,1.7C239.7,161.5,241,160.4,241,159z"/>
	<path class="st1" d="M247.6,157L247.6,157c0-4.1,3.1-7.4,7.4-7.4c2.7,0,4.3,0.9,5.7,2.4l-2.5,2.7c-0.9-1-1.8-1.6-3.2-1.6
		c-2,0-3.4,1.8-3.4,3.9v0.1c0,2.2,1.4,3.9,3.6,3.9c1.4,0,2.3-0.6,3.3-1.5l2.4,2.4c-1.4,1.5-3,2.6-5.8,2.6
		C250.7,164.3,247.6,161,247.6,157z"/>
	<path class="st1" d="M264.1,160v-6.7h-1.7v-3.4h1.7v-3.6h4v3.6h3.3v3.4h-3.3v6.1c0,0.9,0.4,1.4,1.3,1.4c0.7,0,1.4-0.2,2-0.5v3.2
		c-0.8,0.5-1.8,0.8-3.2,0.8C265.8,164.2,264.1,163.3,264.1,160z"/>
	<path class="st1" d="M274.5,144.7h4.2v3.6h-4.2V144.7z M274.6,149.8h4V164h-4V149.8z"/>
	<path class="st1" d="M281.2,149.8h4.3l3.2,9.5l3.2-9.5h4.2l-5.6,14.3h-3.7L281.2,149.8z"/>
	<path class="st1" d="M296.8,157L296.8,157c0-4.1,2.9-7.4,7-7.4c4.7,0,6.9,3.7,6.9,7.7c0,0.3,0,0.7-0.1,1.1h-9.9
		c0.4,1.8,1.7,2.8,3.5,2.8c1.4,0,2.3-0.4,3.4-1.5l2.3,2c-1.3,1.6-3.2,2.7-5.8,2.7C300,164.3,296.8,161.3,296.8,157z M306.9,155.8
		c-0.2-1.8-1.3-3-3-3s-2.8,1.2-3.1,3H306.9z"/>
	<path class="st1" d="M322.2,145.4h4.4l4.9,7.8l4.9-7.8h4.4V164h-4.1v-12.1l-5.2,7.9h-0.1l-5.2-7.8v12h-4L322.2,145.4L322.2,145.4z"
		/>
	<path class="st1" d="M344,157L344,157c0-4.1,2.9-7.4,7-7.4c4.7,0,6.9,3.7,6.9,7.7c0,0.3,0,0.7-0.1,1.1H348c0.4,1.8,1.7,2.8,3.5,2.8
		c1.4,0,2.3-0.4,3.4-1.5l2.3,2c-1.3,1.6-3.2,2.7-5.8,2.7C347.2,164.3,344,161.3,344,157z M354.1,155.8c-0.2-1.8-1.3-3-3-3
		s-2.8,1.2-3.1,3H354.1z"/>
	<path class="st1" d="M360.3,156.9L360.3,156.9c0-4.8,3.1-7.4,6.5-7.4c2.1,0,3.5,1,4.4,2.1v-7h4V164h-4v-2c-1,1.3-2.3,2.3-4.4,2.3
		C363.5,164.3,360.3,161.7,360.3,156.9z M371.3,156.9L371.3,156.9c0-2.4-1.6-4-3.4-4s-3.5,1.5-3.5,3.9v0.1c0,2.4,1.6,3.9,3.5,3.9
		S371.3,159.3,371.3,156.9z"/>
	<path class="st1" d="M378.9,144.7h4.2v3.6h-4.2V144.7z M379.1,149.8h4V164h-4V149.8z"/>
	<path class="st1" d="M386,159.9L386,159.9c0-3.2,2.4-4.6,5.7-4.6c1.4,0,2.5,0.2,3.5,0.6v-0.2c0-1.7-1-2.6-3-2.6
		c-1.5,0-2.6,0.3-3.9,0.8l-1-3.1c1.6-0.7,3.1-1.1,5.5-1.1c2.2,0,3.8,0.6,4.8,1.6c1.1,1.1,1.5,2.6,1.5,4.5v8.2h-3.9v-1.5
		c-1,1.1-2.3,1.8-4.3,1.8C388.2,164.3,386,162.7,386,159.9z M395.3,159v-0.7c-0.7-0.3-1.6-0.5-2.6-0.5c-1.7,0-2.8,0.7-2.8,2v0.1
		c0,1.1,0.9,1.7,2.2,1.7C394,161.5,395.3,160.4,395.3,159z"/>
	<path class="st1" d="M410.9,145.4h7.2c5.8,0,9.9,4,9.9,9.2v0.1c0,5.2-4,9.3-9.9,9.3h-7.2V145.4z M418.2,160.3
		c3.3,0,5.6-2.3,5.6-5.5v-0.1c0-3.3-2.3-5.6-5.6-5.6H415v11.2L418.2,160.3L418.2,160.3z"/>
	<path class="st1" d="M430.5,157L430.5,157c0-4.1,2.9-7.4,7-7.4c4.7,0,6.9,3.7,6.9,7.7c0,0.3,0,0.7-0.1,1.1h-9.9
		c0.4,1.8,1.7,2.8,3.5,2.8c1.4,0,2.3-0.4,3.4-1.5l2.3,2c-1.3,1.6-3.2,2.7-5.8,2.7C433.7,164.3,430.5,161.3,430.5,157z M440.6,155.8
		c-0.2-1.8-1.3-3-3-3s-2.8,1.2-3.1,3H440.6z"/>
	<path class="st1" d="M445.5,149.8h4.3l3.2,9.5l3.2-9.5h4.2l-5.6,14.3h-3.7L445.5,149.8z"/>
	<path class="st1" d="M461.2,157L461.2,157c0-4.1,2.9-7.4,7-7.4c4.7,0,6.9,3.7,6.9,7.7c0,0.3,0,0.7-0.1,1.1h-9.9
		c0.4,1.8,1.7,2.8,3.5,2.8c1.4,0,2.3-0.4,3.4-1.5l2.3,2c-1.3,1.6-3.2,2.7-5.8,2.7C464.4,164.3,461.2,161.3,461.2,157z M471.2,155.8
		c-0.2-1.8-1.3-3-3-3s-2.8,1.2-3.1,3H471.2z"/>
	<path class="st1" d="M478.3,144.7h4V164h-4V144.7z"/>
	<path class="st1" d="M485.5,157L485.5,157c0-4.1,3.3-7.4,7.7-7.4c4.4,0,7.7,3.3,7.7,7.3v0.1c0,4.1-3.3,7.4-7.7,7.4
		C488.7,164.3,485.5,161.1,485.5,157z M496.9,157L496.9,157c0-2.1-1.5-4-3.7-4c-2.3,0-3.7,1.8-3.7,3.9v0.1c0,2.1,1.5,3.9,3.7,3.9
		C495.5,160.8,496.9,159.1,496.9,157z"/>
	<path class="st1" d="M503.8,149.8h4v2c1-1.3,2.3-2.3,4.4-2.3c3.3,0,6.5,2.6,6.5,7.3v0.1c0,4.7-3.1,7.3-6.5,7.3
		c-2.1,0-3.5-1-4.4-2.1v6.1h-4L503.8,149.8L503.8,149.8z M514.7,156.9L514.7,156.9c0-2.4-1.6-4-3.5-4s-3.4,1.6-3.4,3.9v0.1
		c0,2.4,1.6,3.9,3.4,3.9S514.7,159.3,514.7,156.9z"/>
	<path class="st1" d="M521.6,149.8h4v2c0.9-1.2,2.1-2.3,4.2-2.3c1.9,0,3.3,0.8,4,2.3c1.2-1.5,2.7-2.3,4.7-2.3c3,0,4.8,1.8,4.8,5.2
		v9.2h-4V156c0-1.9-0.8-2.9-2.4-2.9s-2.4,1-2.4,2.9v7.9h-4V156c0-1.9-0.8-2.9-2.4-2.9s-2.4,1-2.4,2.9v7.9h-4L521.6,149.8
		L521.6,149.8z"/>
	<path class="st1" d="M546.1,157L546.1,157c0-4.1,2.9-7.4,7-7.4c4.7,0,6.9,3.7,6.9,7.7c0,0.3,0,0.7-0.1,1.1H550
		c0.4,1.8,1.7,2.8,3.5,2.8c1.4,0,2.3-0.4,3.4-1.5l2.3,2c-1.3,1.6-3.2,2.7-5.8,2.7C549.3,164.3,546.1,161.3,546.1,157z M556.1,155.8
		c-0.2-1.8-1.3-3-3-3s-2.8,1.2-3.1,3H556.1z"/>
	<path class="st1" d="M563.1,149.8h4v2c0.9-1.2,2.1-2.3,4.2-2.3c3,0,4.8,2,4.8,5.3v9.2h-4v-7.9c0-1.9-0.9-2.9-2.4-2.9
		s-2.5,1-2.5,2.9v7.9h-4L563.1,149.8L563.1,149.8z"/>
	<path class="st1" d="M580.2,160v-6.7h-1.7v-3.4h1.7v-3.6h4v3.6h3.3v3.4h-3.3v6.1c0,0.9,0.4,1.4,1.3,1.4c0.7,0,1.4-0.2,2-0.5v3.2
		c-0.8,0.5-1.8,0.8-3.2,0.8C581.9,164.2,580.2,163.3,580.2,160z"/>
</g>
<g class="st0">
	<path class="st1" d="M169.1,192.9l2.8-2.7c1.3,1.4,2.6,2.2,4.5,2.2c1.5,0,2.6-0.9,2.6-2.3V190c0-1.5-1.4-2.4-3.6-2.4h-1.7l-0.6-2.6
		l4.4-4.5h-7.3V177h12.5v3.1l-4.7,4.5c2.5,0.4,5,1.8,5,5.2v0.1c0,3.5-2.5,6.1-6.7,6.1C173,196.1,170.7,194.8,169.1,192.9z"/>
	<path class="st1" d="M186.8,177.2h7.2c5.8,0,9.9,4,9.9,9.2v0.1c0,5.2-4,9.3-9.9,9.3h-7.2V177.2z M194.1,192.1
		c3.3,0,5.6-2.3,5.6-5.5v-0.1c0-3.3-2.3-5.6-5.6-5.6h-3.2v11.2L194.1,192.1L194.1,192.1z"/>
	<path class="st1" d="M213.9,177.2h4.5l4.9,13.1l4.9-13.1h4.4l-7.5,18.7h-3.6L213.9,177.2z"/>
	<path class="st1" d="M234.5,176.5h4.2v3.6h-4.2V176.5z M234.6,181.6h4v14.2h-4V181.6z"/>
	<path class="st1" d="M241.3,193.9l1.7-2.7c1.5,1.1,3.2,1.7,4.5,1.7c1.2,0,1.7-0.4,1.7-1.1v-0.1c0-0.9-1.4-1.2-2.9-1.6
		c-2-0.6-4.2-1.5-4.2-4.3v-0.1c0-2.9,2.3-4.5,5.2-4.5c1.8,0,3.8,0.6,5.3,1.6l-1.5,2.8c-1.4-0.8-2.8-1.3-3.8-1.3s-1.5,0.4-1.5,1v0.1
		c0,0.8,1.4,1.2,2.9,1.7c2,0.7,4.3,1.6,4.3,4.2v0.1c0,3.2-2.4,4.6-5.4,4.6C245.4,196.1,243.2,195.4,241.3,193.9z"/>
	<path class="st1" d="M255.6,190.8v-9.2h4v7.9c0,1.9,0.9,2.9,2.4,2.9s2.5-1,2.5-2.9v-7.9h4v14.2h-4v-2c-0.9,1.2-2.1,2.3-4.2,2.3
		C257.4,196.1,255.6,194.1,255.6,190.8z"/>
	<path class="st1" d="M271.4,191.7L271.4,191.7c0-3.2,2.4-4.6,5.7-4.6c1.4,0,2.5,0.2,3.5,0.6v-0.2c0-1.7-1-2.6-3-2.6
		c-1.5,0-2.6,0.3-3.9,0.8l-1-3.1c1.6-0.7,3.1-1.1,5.5-1.1c2.2,0,3.8,0.6,4.8,1.6c1.1,1.1,1.5,2.6,1.5,4.5v8.2h-3.9v-1.5
		c-1,1.1-2.3,1.8-4.3,1.8C273.6,196.1,271.4,194.5,271.4,191.7z M280.6,190.8v-0.7c-0.7-0.3-1.6-0.5-2.6-0.5c-1.7,0-2.8,0.7-2.8,2
		v0.1c0,1.1,0.9,1.7,2.2,1.7C279.4,193.3,280.6,192.2,280.6,190.8z"/>
	<path class="st1" d="M288.1,176.5h4v19.3h-4V176.5z"/>
	<path class="st1" d="M296,176.5h4.2v3.6H296V176.5z M296.1,181.6h4v14.2h-4V181.6z"/>
	<path class="st1" d="M303.4,193l7.3-8.1h-7.1v-3.3h12.1v2.8l-7.4,8.1h7.4v3.3h-12.4V193H303.4z"/>
	<path class="st1" d="M318,191.7L318,191.7c0-3.2,2.4-4.6,5.7-4.6c1.4,0,2.5,0.2,3.5,0.6v-0.2c0-1.7-1-2.6-3-2.6
		c-1.5,0-2.6,0.3-3.9,0.8l-1-3.1c1.6-0.7,3.1-1.1,5.5-1.1c2.2,0,3.8,0.6,4.8,1.6c1.1,1.1,1.5,2.6,1.5,4.5v8.2h-3.9v-1.5
		c-1,1.1-2.3,1.8-4.3,1.8C320.2,196.1,318,194.5,318,191.7z M327.2,190.8v-0.7c-0.7-0.3-1.6-0.5-2.6-0.5c-1.7,0-2.8,0.7-2.8,2v0.1
		c0,1.1,0.9,1.7,2.2,1.7C326,193.3,327.2,192.2,327.2,190.8z"/>
	<path class="st1" d="M335.1,191.8V185h-1.7v-3.4h1.7V178h4v3.6h3.3v3.4h-3.3v6.1c0,0.9,0.4,1.4,1.3,1.4c0.7,0,1.4-0.2,2-0.5v3.2
		c-0.8,0.5-1.8,0.8-3.2,0.8C336.7,196,335.1,195.1,335.1,191.8z"/>
	<path class="st1" d="M345.5,176.5h4.2v3.6h-4.2V176.5z M345.6,181.6h4v14.2h-4V181.6z"/>
	<path class="st1" d="M352.7,188.8L352.7,188.8c0-4.1,3.3-7.4,7.7-7.4c4.4,0,7.7,3.3,7.7,7.3v0.1c0,4.1-3.3,7.4-7.7,7.4
		C356,196.1,352.7,192.9,352.7,188.8z M364.1,188.8L364.1,188.8c0-2.1-1.5-4-3.7-4c-2.3,0-3.7,1.8-3.7,3.9v0.1
		c0,2.1,1.5,3.9,3.7,3.9C362.7,192.6,364.1,190.9,364.1,188.8z"/>
	<path class="st1" d="M371,181.6h4v2c0.9-1.2,2.1-2.3,4.2-2.3c3,0,4.8,2,4.8,5.3v9.2h-4v-7.9c0-1.9-0.9-2.9-2.4-2.9s-2.5,1-2.5,2.9
		v7.9h-4v-14.2H371z"/>
</g>
<g>
	<path class="st2" d="M-545.3,59.3l-23.4-23.5c-0.2-0.2-0.4-0.2-0.6-0.2c-0.3,0.1-0.4,0.3-0.4,0.5c0,0,0,15.6,0,15.7
		c0,0.9,0.4,1.7,1,2.3l0,0l14.3,14.3L-545.3,59.3z"/>
	<path class="st3" d="M-561.2,93.8"/>
	<path class="st4" d="M-561.1,93.8"/>
	<path class="st5" d="M-584.7,51.6c-0.2-0.2-0.4-0.2-0.6-0.2c-0.2,0.1-0.4,0.3-0.5,0.5v15.6c-0.1,1.4,1,2.4,1,2.4l22.8,22.7
		c0.1,0.1,0.4,0.4,0.9,0.4V75.1L-584.7,51.6z"/>
	<path class="st2" d="M-545.3,77.6l-9.1-9.2l-6.7,6.7v17.8c0.6,0,1-0.5,1-0.5L-545.3,77.6z"/>
	<path class="st2" d="M-520.8,36.2c0-0.4-0.3-0.6-0.6-0.6c-0.1,0-0.3,0.1-0.4,0.2l-23.5,23.5v18.4l23.1-23.1l0,0
		c0.8-0.7,1.3-1.6,1.3-2.5L-520.8,36.2L-520.8,36.2z"/>
	<polygon class="st5" points="-545.3,59.3 -554.4,68.4 -545.3,77.6 	"/>
	<path class="st2" d="M-583.6,97.8l-23.5,23.4c-0.2,0.2-0.2,0.4-0.2,0.6c0.1,0.3,0.3,0.4,0.5,0.4c0,0,15.6,0,15.7,0
		c0.9,0,1.7-0.4,2.3-1l0,0l14.4-14.2L-583.6,97.8z"/>
	<path class="st3" d="M-549.1,113.7"/>
	<path class="st4" d="M-549.1,113.7"/>
	<path class="st5" d="M-591.3,137.2c-0.2,0.2-0.2,0.4-0.2,0.6c0.1,0.2,0.3,0.4,0.5,0.5h15.6c1.4,0.1,2.4-1,2.4-1l22.6-22.7
		c0.1-0.1,0.4-0.4,0.4-0.9h-17.7L-591.3,137.2z"/>
	<path class="st6" d="M-565.2,97.8l-9.2,9.1l6.7,6.7h17.8c0-0.6-0.5-1-0.5-1L-565.2,97.8z"/>
	<path class="st2" d="M-606.7,73.4c-0.4,0-0.6,0.3-0.6,0.6c0,0.1,0.1,0.3,0.2,0.4l23.5,23.4h18.4l-23.1-23.1l0,0
		c-0.7-0.8-1.6-1.3-2.5-1.3C-590.8,73.4-606.7,73.4-606.7,73.4z"/>
	<polygon class="st5" points="-583.6,97.8 -574.4,107 -565.2,97.8 	"/>
	<path class="st2" d="M-545.1,136.3l23.4,23.5c0.2,0.2,0.4,0.2,0.6,0.2c0.3-0.1,0.4-0.3,0.4-0.5c0,0,0-15.6,0-15.7
		c0-0.9-0.4-1.7-1-2.3l0,0l-14.3-14.3L-545.1,136.3z"/>
	<path class="st5" d="M-505.7,144c0.2,0.2,0.4,0.2,0.6,0.2c0.2,0,0.4-0.3,0.5-0.5v-15.6c0.1-1.4-1-2.4-1-2.4l-22.8-22.7
		c-0.1-0.1-0.4-0.4-0.9-0.4v17.8L-505.7,144z"/>
	<path class="st2" d="M-545.1,117.9l9.1,9.2l6.7-6.7v-17.8c-0.6,0-1,0.5-1,0.5L-545.1,117.9z"/>
	<path class="st2" d="M-569.6,159.4c0,0.4,0.3,0.6,0.6,0.6c0.1,0,0.3-0.1,0.4-0.2l23.4-23.5v-18.4l-23,23.1l0,0
		c-0.8,0.7-1.3,1.6-1.3,2.5L-569.6,159.4L-569.6,159.4z"/>
	<polygon class="st5" points="-545.1,136.3 -536,127.2 -545.1,117.9 	"/>
	<path class="st2" d="M-506.5,97.7l23.5-23.4c0.2-0.2,0.2-0.4,0.2-0.6c-0.1-0.3-0.3-0.4-0.5-0.4c0,0-15.6,0-15.7,0
		c-0.9,0-1.7,0.4-2.3,1l0,0l-14.3,14.3L-506.5,97.7z"/>
	<path class="st3" d="M-541,81.9"/>
	<path class="st4" d="M-541,81.9"/>
	<path class="st5" d="M-498.8,58.4c0.2-0.2,0.2-0.4,0.2-0.6c-0.1-0.2-0.3-0.4-0.5-0.5h-15.6c-1.4-0.1-2.4,1-2.4,1L-539.8,81
		c-0.1,0.1-0.4,0.4-0.4,0.9h17.8L-498.8,58.4z"/>
	<path class="st2" d="M-524.9,97.7l9.2-9.1l-6.7-6.7h-17.8c0,0.6,0.5,1,0.5,1L-524.9,97.7z"/>
	<path class="st2" d="M-483.4,122.2c0.4,0,0.6-0.3,0.6-0.6c0-0.1-0.1-0.3-0.2-0.4l-23.5-23.4h-18.4l23.1,23.1l0,0
		c0.7,0.8,1.6,1.3,2.5,1.3H-483.4z"/>
	<polygon class="st5" points="-506.5,97.7 -515.6,88.6 -524.9,97.7 	"/>
</g>
<g>
	<polygon class="st1" points="-465.7,73.6 -428.3,73.6 -428.3,83.4 -454.8,83.4 -454.8,93.8 -431.4,93.8 -431.4,103.7 -454.8,103.7 
		-454.8,122.7 -465.7,122.7 	"/>
	<path class="st1" d="M-409.3,73.2h10l21.1,49.5h-11.3l-4.5-11h-20.8l-4.5,11h-11L-409.3,73.2z M-397.9,102.1l-6.5-15.9l-6.5,15.9
		H-397.9z"/>
	<polygon class="st1" points="-373.3,73.6 -363.4,73.6 -340.3,103.8 -340.3,73.6 -329.7,73.6 -329.7,122.7 -338.9,122.7 
		-362.7,91.4 -362.7,122.7 -373.3,122.7 	"/>
	<path class="st1" d="M-322,115.5l6.4-7.7c4.4,3.6,9.1,6,14.7,6c4.4,0,7.1-1.8,7.1-4.6v-0.1c0-2.7-1.7-4.1-9.9-6.2
		c-9.9-2.5-16.3-5.3-16.3-15v-0.1c0-8.9,7.2-14.8,17.2-14.8c7.2,0,13.3,2.3,18.2,6.3l-5.6,8.1c-4.4-3-8.6-4.8-12.8-4.8
		c-4.1,0-6.3,1.9-6.3,4.3V87c0,3.2,2.1,4.3,10.6,6.5c10,2.6,15.6,6.2,15.6,14.7v0.1c0,9.8-7.4,15.2-18,15.2
		C-308.7,123.4-316.2,120.8-322,115.5"/>
	<polygon class="st1" points="-274.6,73.6 -263.8,73.6 -263.8,93 -243.8,93 -243.8,73.6 -233,73.6 -233,122.7 -243.8,122.7 
		-243.8,103 -263.8,103 -263.8,122.7 -274.6,122.7 	"/>
	<path class="st1" d="M-206.2,73.2h10l21.1,49.5h-11.3l-4.5-11h-20.8l-4.5,11h-11L-206.2,73.2z M-194.8,102.1l-6.5-15.9l-6.5,15.9
		H-194.8z"/>
	<polygon class="st1" points="-180.1,73.6 -168.5,73.6 -158.3,106.8 -147.3,73.4 -138,73.4 -127,106.8 -116.9,73.6 -105.6,73.6 
		-122.3,123 -131.7,123 -142.8,90.9 -153.9,123 -163.3,123 	"/>
	<polygon class="st1" points="-99.3,73.6 -62.3,73.6 -62.3,83.2 -88.6,83.2 -88.6,93.1 -65.4,93.1 -65.4,102.7 -88.6,102.7 
		-88.6,113.1 -61.9,113.1 -61.9,122.7 -99.3,122.7 	"/>
</g>
<g class="st0">
	<path class="st1" d="M-465.4,145.4h4.1V164h-4.1V145.4z"/>
	<path class="st1" d="M-457.2,149.8h4v2c0.9-1.2,2.1-2.3,4.2-2.3c3,0,4.8,2,4.8,5.3v9.2h-4v-7.9c0-1.9-0.9-2.9-2.4-2.9
		s-2.5,1-2.5,2.9v7.9h-4v-14.2H-457.2z"/>
	<path class="st1" d="M-440,160v-6.7h-1.7v-3.4h1.7v-3.6h4v3.6h3.3v3.4h-3.3v6.1c0,0.9,0.4,1.4,1.3,1.4c0.7,0,1.4-0.2,2-0.5v3.2
		c-0.8,0.5-1.8,0.8-3.2,0.8C-438.3,164.2-440,163.3-440,160z"/>
	<path class="st1" d="M-430.7,157L-430.7,157c0-4.1,2.9-7.4,7-7.4c4.7,0,6.9,3.7,6.9,7.7c0,0.3,0,0.7-0.1,1.1h-9.9
		c0.4,1.8,1.7,2.8,3.5,2.8c1.4,0,2.3-0.4,3.4-1.5l2.3,2c-1.3,1.6-3.2,2.7-5.8,2.7C-427.6,164.3-430.7,161.3-430.7,157z
		 M-420.7,155.8c-0.2-1.8-1.3-3-3-3c-1.7,0-2.8,1.2-3.1,3H-420.7z"/>
	<path class="st1" d="M-413.8,149.8h4v2.9c0.8-2,2.1-3.2,4.5-3.1v4.2h-0.2c-2.7,0-4.3,1.6-4.3,5v5.2h-4V149.8z"/>
	<path class="st1" d="M-404.2,159.9L-404.2,159.9c0-3.2,2.4-4.6,5.7-4.6c1.4,0,2.5,0.2,3.5,0.6v-0.2c0-1.7-1-2.6-3-2.6
		c-1.5,0-2.6,0.3-3.9,0.8l-1-3.1c1.6-0.7,3.1-1.1,5.5-1.1c2.2,0,3.8,0.6,4.8,1.6c1.1,1.1,1.5,2.6,1.5,4.5v8.2h-3.9v-1.5
		c-1,1.1-2.3,1.8-4.3,1.8C-402,164.3-404.2,162.7-404.2,159.9z M-395,159v-0.7c-0.7-0.3-1.6-0.5-2.6-0.5c-1.7,0-2.8,0.7-2.8,2v0.1
		c0,1.1,0.9,1.7,2.2,1.7C-396.3,161.5-395,160.4-395,159z"/>
	<path class="st1" d="M-388.4,157L-388.4,157c0-4.1,3.1-7.4,7.4-7.4c2.7,0,4.3,0.9,5.7,2.4l-2.5,2.7c-0.9-1-1.8-1.6-3.2-1.6
		c-2,0-3.4,1.8-3.4,3.9v0.1c0,2.2,1.4,3.9,3.6,3.9c1.4,0,2.3-0.6,3.3-1.5l2.4,2.4c-1.4,1.5-3,2.6-5.8,2.6
		C-385.3,164.3-388.4,161-388.4,157z"/>
	<path class="st1" d="M-371.9,160v-6.7h-1.7v-3.4h1.7v-3.6h4v3.6h3.3v3.4h-3.3v6.1c0,0.9,0.4,1.4,1.3,1.4c0.7,0,1.4-0.2,2-0.5v3.2
		c-0.8,0.5-1.8,0.8-3.2,0.8C-370.2,164.2-371.9,163.3-371.9,160z"/>
	<path class="st1" d="M-361.5,144.7h4.2v3.6h-4.2V144.7z M-361.4,149.8h4V164h-4V149.8z"/>
	<path class="st1" d="M-354.8,149.8h4.3l3.2,9.5l3.2-9.5h4.2l-5.6,14.3h-3.7L-354.8,149.8z"/>
	<path class="st1" d="M-339.2,157L-339.2,157c0-4.1,2.9-7.4,7-7.4c4.7,0,6.9,3.7,6.9,7.7c0,0.3,0,0.7-0.1,1.1h-9.9
		c0.4,1.8,1.7,2.8,3.5,2.8c1.4,0,2.3-0.4,3.4-1.5l2.3,2c-1.3,1.6-3.2,2.7-5.8,2.7C-336,164.3-339.2,161.3-339.2,157z M-329.1,155.8
		c-0.2-1.8-1.3-3-3-3s-2.8,1.2-3.1,3H-329.1z"/>
	<path class="st1" d="M-313.8,145.4h4.4l4.9,7.8l4.9-7.8h4.4V164h-4.1v-12.1l-5.2,7.9h-0.1l-5.2-7.8v12h-4L-313.8,145.4
		L-313.8,145.4z"/>
	<path class="st1" d="M-292,157L-292,157c0-4.1,2.9-7.4,7-7.4c4.7,0,6.9,3.7,6.9,7.7c0,0.3,0,0.7-0.1,1.1h-9.8
		c0.4,1.8,1.7,2.8,3.5,2.8c1.4,0,2.3-0.4,3.4-1.5l2.3,2c-1.3,1.6-3.2,2.7-5.8,2.7C-288.8,164.3-292,161.3-292,157z M-281.9,155.8
		c-0.2-1.8-1.3-3-3-3s-2.8,1.2-3.1,3H-281.9z"/>
	<path class="st1" d="M-275.7,156.9L-275.7,156.9c0-4.8,3.1-7.4,6.5-7.4c2.1,0,3.5,1,4.4,2.1v-7h4V164h-4v-2c-1,1.3-2.3,2.3-4.4,2.3
		C-272.5,164.3-275.7,161.7-275.7,156.9z M-264.7,156.9L-264.7,156.9c0-2.4-1.6-4-3.4-4s-3.5,1.5-3.5,3.9v0.1c0,2.4,1.6,3.9,3.5,3.9
		S-264.7,159.3-264.7,156.9z"/>
	<path class="st1" d="M-257.1,144.7h4.2v3.6h-4.2V144.7z M-256.9,149.8h4V164h-4V149.8z"/>
	<path class="st1" d="M-250,159.9L-250,159.9c0-3.2,2.4-4.6,5.7-4.6c1.4,0,2.5,0.2,3.5,0.6v-0.2c0-1.7-1-2.6-3-2.6
		c-1.5,0-2.6,0.3-3.9,0.8l-1-3.1c1.6-0.7,3.1-1.1,5.5-1.1c2.2,0,3.8,0.6,4.8,1.6c1.1,1.1,1.5,2.6,1.5,4.5v8.2h-3.9v-1.5
		c-1,1.1-2.3,1.8-4.3,1.8C-247.8,164.3-250,162.7-250,159.9z M-240.7,159v-0.7c-0.7-0.3-1.6-0.5-2.6-0.5c-1.7,0-2.8,0.7-2.8,2v0.1
		c0,1.1,0.9,1.7,2.2,1.7C-242,161.5-240.7,160.4-240.7,159z"/>
	<path class="st1" d="M-225.1,145.4h7.2c5.8,0,9.9,4,9.9,9.2v0.1c0,5.2-4,9.3-9.9,9.3h-7.2V145.4z M-217.8,160.3
		c3.3,0,5.6-2.3,5.6-5.5v-0.1c0-3.3-2.3-5.6-5.6-5.6h-3.2v11.2L-217.8,160.3L-217.8,160.3z"/>
	<path class="st1" d="M-205.5,157L-205.5,157c0-4.1,2.9-7.4,7-7.4c4.7,0,6.9,3.7,6.9,7.7c0,0.3,0,0.7-0.1,1.1h-9.9
		c0.4,1.8,1.7,2.8,3.5,2.8c1.4,0,2.3-0.4,3.4-1.5l2.3,2c-1.3,1.6-3.2,2.7-5.8,2.7C-202.3,164.3-205.5,161.3-205.5,157z
		 M-195.4,155.8c-0.2-1.8-1.3-3-3-3s-2.8,1.2-3.1,3H-195.4z"/>
	<path class="st1" d="M-190.5,149.8h4.3l3.2,9.5l3.2-9.5h4.2l-5.6,14.3h-3.7L-190.5,149.8z"/>
	<path class="st1" d="M-174.8,157L-174.8,157c0-4.1,2.9-7.4,7-7.4c4.7,0,6.9,3.7,6.9,7.7c0,0.3,0,0.7-0.1,1.1h-9.9
		c0.4,1.8,1.7,2.8,3.5,2.8c1.4,0,2.3-0.4,3.4-1.5l2.3,2c-1.3,1.6-3.2,2.7-5.8,2.7C-171.6,164.3-174.8,161.3-174.8,157z
		 M-164.8,155.8c-0.2-1.8-1.3-3-3-3s-2.8,1.2-3.1,3H-164.8z"/>
	<path class="st1" d="M-157.7,144.7h4V164h-4V144.7z"/>
	<path class="st1" d="M-150.5,157L-150.5,157c0-4.1,3.3-7.4,7.7-7.4c4.4,0,7.7,3.3,7.7,7.3v0.1c0,4.1-3.3,7.4-7.7,7.4
		C-147.3,164.3-150.5,161.1-150.5,157z M-139.1,157L-139.1,157c0-2.1-1.5-4-3.7-4c-2.3,0-3.7,1.8-3.7,3.9v0.1c0,2.1,1.5,3.9,3.7,3.9
		C-140.5,160.8-139.1,159.1-139.1,157z"/>
	<path class="st1" d="M-132.2,149.8h4v2c1-1.3,2.3-2.3,4.4-2.3c3.3,0,6.5,2.6,6.5,7.3v0.1c0,4.7-3.1,7.3-6.5,7.3
		c-2.1,0-3.5-1-4.4-2.1v6.1h-4L-132.2,149.8L-132.2,149.8z M-121.3,156.9L-121.3,156.9c0-2.4-1.6-4-3.5-4s-3.4,1.6-3.4,3.9v0.1
		c0,2.4,1.6,3.9,3.4,3.9S-121.3,159.3-121.3,156.9z"/>
	<path class="st1" d="M-114.4,149.8h4v2c0.9-1.2,2.1-2.3,4.2-2.3c1.9,0,3.3,0.8,4,2.3c1.2-1.5,2.7-2.3,4.7-2.3c3,0,4.8,1.8,4.8,5.2
		v9.2h-4V156c0-1.9-0.8-2.9-2.4-2.9s-2.4,1-2.4,2.9v7.9h-4V156c0-1.9-0.8-2.9-2.4-2.9s-2.4,1-2.4,2.9v7.9h-4L-114.4,149.8
		L-114.4,149.8z"/>
	<path class="st1" d="M-89.9,157L-89.9,157c0-4.1,2.9-7.4,7-7.4c4.7,0,6.9,3.7,6.9,7.7c0,0.3,0,0.7-0.1,1.1H-86
		c0.4,1.8,1.7,2.8,3.5,2.8c1.4,0,2.3-0.4,3.4-1.5l2.3,2c-1.3,1.6-3.2,2.7-5.8,2.7C-86.7,164.3-89.9,161.3-89.9,157z M-79.9,155.8
		c-0.2-1.8-1.3-3-3-3s-2.8,1.2-3.1,3H-79.9z"/>
	<path class="st1" d="M-72.9,149.8h4v2c0.9-1.2,2.1-2.3,4.2-2.3c3,0,4.8,2,4.8,5.3v9.2h-4v-7.9c0-1.9-0.9-2.9-2.4-2.9
		s-2.5,1-2.5,2.9v7.9h-4L-72.9,149.8L-72.9,149.8z"/>
	<path class="st1" d="M-55.8,160v-6.7h-1.7v-3.4h1.7v-3.6h4v3.6h3.3v3.4h-3.3v6.1c0,0.9,0.4,1.4,1.3,1.4c0.7,0,1.4-0.2,2-0.5v3.2
		c-0.8,0.5-1.8,0.8-3.2,0.8C-54.1,164.2-55.8,163.3-55.8,160z"/>
</g>
<g class="st0">
	<path class="st1" d="M-466.9,192.9l2.8-2.7c1.3,1.4,2.6,2.2,4.5,2.2c1.5,0,2.6-0.9,2.6-2.3V190c0-1.5-1.4-2.4-3.6-2.4h-1.7
		l-0.6-2.6l4.4-4.5h-7.3V177h12.5v3.1l-4.7,4.5c2.5,0.4,5,1.8,5,5.2v0.1c0,3.5-2.5,6.1-6.7,6.1C-463,196.1-465.3,194.8-466.9,192.9z
		"/>
	<path class="st1" d="M-449.2,177.2h7.2c5.8,0,9.9,4,9.9,9.2v0.1c0,5.2-4,9.3-9.9,9.3h-7.2V177.2z M-441.9,192.1
		c3.3,0,5.6-2.3,5.6-5.5v-0.1c0-3.3-2.3-5.6-5.6-5.6h-3.2v11.2L-441.9,192.1L-441.9,192.1z"/>
	<path class="st1" d="M-422.1,177.2h4.5l4.9,13.1l4.9-13.1h4.4l-7.5,18.7h-3.6L-422.1,177.2z"/>
	<path class="st1" d="M-401.5,176.5h4.2v3.6h-4.2V176.5z M-401.4,181.6h4v14.2h-4V181.6z"/>
	<path class="st1" d="M-394.7,193.9l1.7-2.7c1.5,1.1,3.2,1.7,4.5,1.7c1.2,0,1.7-0.4,1.7-1.1v-0.1c0-0.9-1.4-1.2-2.9-1.6
		c-2-0.6-4.2-1.5-4.2-4.3v-0.1c0-2.9,2.3-4.5,5.2-4.5c1.8,0,3.8,0.6,5.3,1.6l-1.5,2.8c-1.4-0.8-2.8-1.3-3.8-1.3s-1.5,0.4-1.5,1v0.1
		c0,0.8,1.4,1.2,2.9,1.7c2,0.7,4.3,1.6,4.3,4.2v0.1c0,3.2-2.4,4.6-5.4,4.6C-390.6,196.1-392.8,195.4-394.7,193.9z"/>
	<path class="st1" d="M-380.4,190.8v-9.2h4v7.9c0,1.9,0.9,2.9,2.4,2.9s2.5-1,2.5-2.9v-7.9h4v14.2h-4v-2c-0.9,1.2-2.1,2.3-4.2,2.3
		C-378.6,196.1-380.4,194.1-380.4,190.8z"/>
	<path class="st1" d="M-364.6,191.7L-364.6,191.7c0-3.2,2.4-4.6,5.7-4.6c1.4,0,2.5,0.2,3.5,0.6v-0.2c0-1.7-1-2.6-3-2.6
		c-1.5,0-2.6,0.3-3.9,0.8l-1-3.1c1.6-0.7,3.1-1.1,5.5-1.1c2.2,0,3.8,0.6,4.8,1.6c1.1,1.1,1.5,2.6,1.5,4.5v8.2h-3.9v-1.5
		c-1,1.1-2.3,1.8-4.3,1.8C-362.4,196.1-364.6,194.5-364.6,191.7z M-355.4,190.8v-0.7c-0.7-0.3-1.6-0.5-2.6-0.5c-1.7,0-2.8,0.7-2.8,2
		v0.1c0,1.1,0.9,1.7,2.2,1.7C-356.6,193.3-355.4,192.2-355.4,190.8z"/>
	<path class="st1" d="M-347.9,176.5h4v19.3h-4V176.5z"/>
	<path class="st1" d="M-340,176.5h4.2v3.6h-4.2V176.5z M-339.9,181.6h4v14.2h-4V181.6z"/>
	<path class="st1" d="M-332.6,193l7.3-8.1h-7.1v-3.3h12.1v2.8l-7.4,8.1h7.4v3.3h-12.4V193H-332.6z"/>
	<path class="st1" d="M-318,191.7L-318,191.7c0-3.2,2.4-4.6,5.7-4.6c1.4,0,2.5,0.2,3.5,0.6v-0.2c0-1.7-1-2.6-3-2.6
		c-1.5,0-2.6,0.3-3.9,0.8l-1-3.1c1.6-0.7,3.1-1.1,5.5-1.1c2.2,0,3.8,0.6,4.8,1.6c1.1,1.1,1.5,2.6,1.5,4.5v8.2h-3.9v-1.5
		c-1,1.1-2.3,1.8-4.3,1.8C-315.8,196.1-318,194.5-318,191.7z M-308.8,190.8v-0.7c-0.7-0.3-1.6-0.5-2.6-0.5c-1.7,0-2.8,0.7-2.8,2v0.1
		c0,1.1,0.9,1.7,2.2,1.7C-310,193.3-308.8,192.2-308.8,190.8z"/>
	<path class="st1" d="M-300.9,191.8V185h-1.7v-3.4h1.7V178h4v3.6h3.3v3.4h-3.3v6.1c0,0.9,0.4,1.4,1.3,1.4c0.7,0,1.4-0.2,2-0.5v3.2
		c-0.8,0.5-1.8,0.8-3.2,0.8C-299.3,196-300.9,195.1-300.9,191.8z"/>
	<path class="st1" d="M-290.5,176.5h4.2v3.6h-4.2V176.5z M-290.4,181.6h4v14.2h-4V181.6z"/>
	<path class="st1" d="M-283.3,188.8L-283.3,188.8c0-4.1,3.3-7.4,7.7-7.4c4.4,0,7.7,3.3,7.7,7.3v0.1c0,4.1-3.3,7.4-7.7,7.4
		C-280,196.1-283.3,192.9-283.3,188.8z M-271.9,188.8L-271.9,188.8c0-2.1-1.5-4-3.7-4c-2.3,0-3.7,1.8-3.7,3.9v0.1
		c0,2.1,1.5,3.9,3.7,3.9C-273.3,192.6-271.9,190.9-271.9,188.8z"/>
	<path class="st1" d="M-265,181.6h4v2c0.9-1.2,2.1-2.3,4.2-2.3c3,0,4.8,2,4.8,5.3v9.2h-4v-7.9c0-1.9-0.9-2.9-2.4-2.9s-2.5,1-2.5,2.9
		v7.9h-4v-14.2H-265z"/>
</g>
<g>
	<polygon class="st7" points="171.1,73.5 208.3,73.5 208.3,83.3 181.8,83.3 181.8,93.7 205.1,93.7 205.1,103.5 181.8,103.5 
		181.8,122.4 171.1,122.4 	"/>
	<path class="st7" d="M227.2,73.2h9.9l20.9,49.2h-11.2l-4.5-11h-20.7l-4.5,11h-11L227.2,73.2z M238.5,101.9L232,86.1l-6.5,15.9
		H238.5z"/>
	<polygon class="st7" points="262.9,73.5 272.9,73.5 295.8,103.6 295.8,73.5 306.4,73.5 306.4,122.4 297.2,122.4 273.6,91.3 
		273.6,122.4 262.9,122.4 	"/>
	<path class="st7" d="M313.9,115.3l6.3-7.6c4.4,3.6,9,5.9,14.6,5.9c4.4,0,7.1-1.7,7.1-4.6v-0.1c0-2.7-1.7-4.1-9.8-6.2
		c-9.8-2.5-16.2-5.2-16.2-14.9v-0.1c0-8.9,7.1-14.7,17.1-14.7c7.1,0,13.2,2.2,18.1,6.2l-5.6,8.1c-4.3-3-8.6-4.8-12.7-4.8
		s-6.3,1.9-6.3,4.3v0.1c0,3.2,2.1,4.3,10.5,6.4c9.9,2.6,15.5,6.1,15.5,14.7v0.1c0,9.7-7.4,15.2-17.9,15.2
		C327.3,123.1,319.8,120.5,313.9,115.3"/>
	<polygon class="st7" points="361.2,73.5 371.9,73.5 371.9,92.9 391.7,92.9 391.7,73.5 402.5,73.5 402.5,122.4 391.7,122.4 
		391.7,102.8 371.9,102.8 371.9,122.4 361.2,122.4 	"/>
	<path class="st7" d="M429.2,73.2h9.9l20.9,49.2h-11.2l-4.5-11h-20.7l-4.5,11h-11L429.2,73.2z M440.5,101.9l-6.5-15.9l-6.5,15.9
		H440.5z"/>
	<polygon class="st7" points="455.2,73.5 466.7,73.5 476.8,106.6 487.8,73.4 497,73.4 508,106.6 518.1,73.5 529.3,73.5 512.6,122.7 
		503.3,122.7 492.2,90.8 481.2,122.7 471.9,122.7 	"/>
	<polygon class="st7" points="535.5,73.5 572.4,73.5 572.4,83.1 546.2,83.1 546.2,93 569.2,93 569.2,102.6 546.2,102.6 546.2,112.8 
		572.7,112.8 572.7,122.4 535.5,122.4 	"/>
	<g>
		<path class="st8" d="M90.9,59.7L67.6,36.3c-0.2-0.2-0.4-0.2-0.6-0.2c-0.3,0.1-0.4,0.3-0.4,0.5c0,0,0,15.6,0,15.6
			c0,0.9,0.4,1.7,1,2.3l0,0l14.3,14.3L90.9,59.7z"/>
		<path class="st9" d="M75.1,94.1"/>
		<path class="st4" d="M75.1,94.1"/>
		<path class="st10" d="M51.7,52c-0.2-0.2-0.4-0.2-0.6-0.2c-0.2,0-0.4,0.3-0.5,0.5l0,15.5c-0.1,1.4,1,2.4,1,2.4l22.6,22.5
			c0.1,0.1,0.4,0.4,0.9,0.4V75.5L51.7,52z"/>
		<path class="st8" d="M90.9,78l-9.1-9.2l-6.7,6.7l0,17.7c0.6,0,1-0.5,1-0.5L90.9,78z"/>
		<path class="st8" d="M115.2,36.7c0-0.4-0.3-0.6-0.6-0.6c-0.1,0-0.3,0.1-0.4,0.2L90.9,59.7l0,18.3l23-23l0,0
			c0.8-0.7,1.3-1.6,1.3-2.5V36.7z"/>
		<polygon class="st10" points="90.9,59.7 81.8,68.8 90.9,78 		"/>
		<path class="st8" d="M52.8,98.1l-23.4,23.3c-0.2,0.2-0.2,0.4-0.2,0.6c0.1,0.3,0.3,0.4,0.5,0.4c0,0,15.6,0,15.6,0
			c0.9,0,1.7-0.4,2.3-1l0,0l14.3-14.3L52.8,98.1z"/>
		<path class="st9" d="M87.1,113.9"/>
		<path class="st4" d="M87.1,113.9"/>
		<path class="st10" d="M45.1,137.3c-0.2,0.2-0.2,0.4-0.2,0.6c0.1,0.2,0.3,0.4,0.5,0.5l15.5,0c1.4,0.1,2.4-1,2.4-1l22.5-22.6
			c0.1-0.1,0.4-0.4,0.4-0.9H68.5L45.1,137.3z"/>
		<path class="st8" d="M71,98.1l-9.2,9.1l6.7,6.7h17.7c0-0.6-0.5-1-0.5-1L71,98.1z"/>
		<path class="st8" d="M29.8,73.7c-0.4,0-0.6,0.3-0.6,0.6c0,0.1,0.1,0.3,0.2,0.4l23.4,23.3H71l-23-23l0,0c-0.7-0.8-1.6-1.3-2.5-1.3
			H29.8z"/>
		<polygon class="st10" points="52.8,98.1 61.9,107.2 71,98.1 		"/>
		<path class="st8" d="M91.1,136.4l23.3,23.4c0.2,0.2,0.4,0.2,0.6,0.2c0.3-0.1,0.4-0.3,0.4-0.5c0,0,0-15.6,0-15.6
			c0-0.9-0.4-1.7-1-2.3l0,0l-14.2-14.3L91.1,136.4z"/>
		<path class="st10" d="M130.3,144.1c0.2,0.2,0.4,0.2,0.6,0.2c0.2-0.1,0.4-0.3,0.5-0.5l0-15.5c0.1-1.4-1-2.4-1-2.4l-22.6-22.5
			c-0.1-0.1-0.4-0.4-0.9-0.4v17.7L130.3,144.1z"/>
		<path class="st8" d="M91.1,118.1l9.1,9.2l6.7-6.7l0-17.7c-0.6,0-1,0.5-1,0.5L91.1,118.1z"/>
		<path class="st8" d="M66.7,159.4c0,0.4,0.3,0.6,0.6,0.6c0.1,0,0.3-0.1,0.4-0.2l23.3-23.4v-18.3l-23,23l0,0
			c-0.8,0.6-1.3,1.6-1.3,2.5V159.4z"/>
		<polygon class="st10" points="91.1,136.4 100.2,127.3 91.1,118.1 		"/>
		<path class="st8" d="M129.5,98l23.4-23.3c0.2-0.2,0.2-0.4,0.2-0.6c-0.1-0.3-0.3-0.4-0.5-0.4c0,0-15.6,0-15.6,0
			c-0.9,0-1.7,0.4-2.3,1l0,0l-14.3,14.3L129.5,98z"/>
		<path class="st9" d="M95.1,82.2"/>
		<path class="st4" d="M95.1,82.2"/>
		<path class="st10" d="M137.2,58.8c0.2-0.2,0.2-0.4,0.2-0.6c-0.1-0.2-0.3-0.4-0.5-0.4l-15.5,0c-1.4-0.1-2.4,1-2.4,1L96.4,81.3
			c-0.1,0.1-0.4,0.4-0.4,0.9h17.7L137.2,58.8z"/>
		<path class="st8" d="M111.2,98l9.2-9.1l-6.7-6.7l-17.7,0c0,0.6,0.5,1,0.5,1L111.2,98z"/>
		<path class="st8" d="M152.5,122.4c0.4,0,0.6-0.3,0.6-0.6c0-0.1-0.1-0.3-0.2-0.4L129.5,98l-18.3,0l23,23l0,0
			c0.6,0.8,1.6,1.3,2.5,1.3H152.5z"/>
		<polygon class="st10" points="129.5,98 120.4,88.9 111.2,98 		"/>
	</g>
</g>
</svg>
