<?xml version="1.0" encoding="utf-8"?>
<!-- Generator: Adobe Illustrator 24.1.2, SVG Export Plug-In . SVG Version: 6.00 Build 0)  -->
<svg version="1.1" id="Layer_1" xmlns="http://www.w3.org/2000/svg" xmlns:xlink="http://www.w3.org/1999/xlink" x="0px" y="0px"
	 viewBox="0 0 179.8 180.6" style="enable-background:new 0 0 179.8 180.6;" xml:space="preserve">
<style type="text/css">
	.st0{fill:#6E6F72;}
	.st1{display:none;fill:#F2F3F1;}
	.st2{font-family:'AktivGroteskCorp-Bold';}
	.st3{font-size:23.8404px;}
	.st4{fill:#F2F3F1;}
	.st5{fill:#016E90;}
	.st6{fill:#EEC540;}
</style>
<g id="Group_11_1_" transform="translate(-2119 161)">
	<path id="Rectangle_12_1_" class="st0" d="M2159.2-157.1h98.5c20.9,0,37.9,17,37.9,37.9v98.5c0,20.9-17,37.9-37.9,37.9h-98.5
		c-20.9,0-37.9-17-37.9-37.9v-98.5C2121.3-140.2,2138.3-157.1,2159.2-157.1z"/>
</g>
<text transform="matrix(1 0 0 1 61.5776 138.1035)" class="st1 st2 st3">virus</text>
<g>
	<path class="st4" d="M61.8,125.7h3.9l2.8,8.7l2.8-8.7h3.7L70,138.1h-3.3L61.8,125.7z"/>
	<path class="st4" d="M76.5,121.1H80v3h-3.4V121.1z M76.6,125.7h3.3v12.4h-3.3V125.7z"/>
	<path class="st4" d="M82.9,125.7h3.2v1.7c0.4-0.7,0.9-1.1,1.5-1.5c0.6-0.3,1.2-0.5,1.9-0.5c0.3,0,0.6,0,0.8,0
		c0.2,0,0.4,0.1,0.5,0.1l-0.4,3c-0.4-0.1-0.9-0.1-1.4-0.1c-0.4,0-0.7,0-1,0.1c-0.3,0.1-0.6,0.3-0.9,0.5c-0.3,0.3-0.5,0.5-0.6,0.9
		c-0.1,0.3-0.2,0.6-0.2,1v7.2h-3.3V125.7z"/>
	<path class="st4" d="M92.8,125.7h3.3v7.8c0,0.9,0.2,1.5,0.5,1.8c0.3,0.3,0.8,0.5,1.3,0.5c0.4,0,0.8-0.1,1.1-0.2
		c0.3-0.1,0.5-0.3,0.8-0.5c0.3-0.2,0.5-0.5,0.6-0.8c0.2-0.3,0.2-0.6,0.2-1v-7.5h3.3v12.4h-3.2v-1.7c-0.5,0.7-1.1,1.3-1.7,1.6
		c-0.6,0.3-1.3,0.5-2.1,0.5c-1.4,0-2.5-0.4-3.1-1.1c-0.7-0.7-1-1.9-1-3.5V125.7z"/>
	<path class="st4" d="M109.3,134.1c0.1,0.7,0.4,1.2,0.9,1.4c0.5,0.2,1,0.3,1.7,0.3c0.8,0,1.4-0.1,1.7-0.3c0.3-0.2,0.5-0.5,0.5-1
		c0-0.3-0.1-0.6-0.3-0.8s-0.6-0.4-1.2-0.5l-1.7-0.3c-1.5-0.2-2.6-0.6-3.4-1.2c-0.7-0.6-1.1-1.5-1.1-2.6c0-0.6,0.1-1.1,0.4-1.6
		c0.3-0.5,0.6-0.9,1.1-1.2c0.5-0.3,1-0.6,1.7-0.8c0.7-0.2,1.4-0.3,2.2-0.3c1,0,1.8,0.1,2.5,0.3c0.7,0.2,1.2,0.5,1.6,0.8
		c0.4,0.3,0.7,0.7,1,1.2c0.2,0.5,0.4,1,0.5,1.5l-3,0.4c-0.1-0.6-0.4-1-0.8-1.3s-0.9-0.4-1.7-0.4c-0.4,0-0.8,0-1.1,0.1
		c-0.3,0.1-0.5,0.2-0.7,0.3s-0.3,0.2-0.4,0.4c-0.1,0.1-0.1,0.3-0.1,0.4c0,0.4,0.1,0.7,0.4,0.9c0.2,0.2,0.7,0.3,1.4,0.5l1.6,0.3
		c0.9,0.1,1.6,0.3,2.2,0.5c0.6,0.2,1,0.5,1.4,0.8c0.3,0.3,0.6,0.7,0.7,1.2c0.1,0.4,0.2,1,0.2,1.5c0,1.2-0.4,2.1-1.3,2.8
		c-0.9,0.7-2.3,1.1-4.1,1.1c-0.7,0-1.5-0.1-2.1-0.2s-1.3-0.4-1.8-0.7c-0.5-0.3-1-0.8-1.3-1.3s-0.5-1.3-0.6-2.1H109.3z"/>
</g>
<g>
	<g>
		<polygon class="st5" points="66.9,33.3 111.3,33.3 88.3,69.7 		"/>
		<polygon class="st5" points="88.8,21.4 68,33.6 109.1,33.3 		"/>
		<polygon class="st5" points="67.1,56.2 87.8,68.7 67.8,32.7 		"/>
		<polygon class="st5" points="110.2,56.9 110,32.8 89.8,68.6 		"/>
		<g>
			<path class="st6" d="M135.7,105.6c-7.5-7-15-14-22.5-21c-0.9-0.8-1.6-0.8-2.5,0c-0.8,0.7-1.6,1.5-2.5,2.3
				c-1.3-2.7-2.7-5.3-3.9-7.9c-0.3-0.7-0.8-1.1-1.5-1.1c-0.8,0-1.2,0.5-1.6,1.2c-3.4,6.7-6.7,13.5-10.1,20.2
				c-0.1,0.3-0.2,0.6-0.6,0.9c0-9.6,0-19,0-28.5c0-0.6,0.3-0.7,0.7-1c6.4-3.7,12.9-7.4,19.3-11c1-0.6,1.4-1.3,1.4-2.4
				c0-7.8,0-15.6,0-23.3c0-0.9-0.3-1.5-1.2-2C104,28,97.1,24.1,90.2,20.1c-0.8-0.5-1.6-0.5-2.4,0C81,24,74.3,27.9,67.4,31.8
				c-1,0.6-1.4,1.3-1.4,2.4c0,7.6,0.1,15.2,0,22.9c0,1.3,0.4,2,1.5,2.7C74,63.3,80.3,67,86.7,70.6c0.6,0.3,0.8,0.6,0.8,1.3
				c0,9.1,0,18.2,0,27.4c0,0.3,0,0.5,0,1c-0.2-0.3-0.3-0.5-0.3-0.6c-3.4-6.9-6.9-13.7-10.3-20.6c-0.3-0.7-0.8-1.2-1.6-1.2
				c-0.8,0-1.3,0.5-1.6,1.2c-1.2,2.6-2.5,5.1-3.8,7.7c-0.8-0.7-1.5-1.4-2.2-2.1c-1.2-1.1-1.8-1.1-3,0c-4.5,4.2-9,8.4-13.6,12.7
				c-2.9,2.7-5.8,5.4-8.7,8.2c-0.9,0.9-0.9,1.9-0.1,2.5c0.7,0.5,1.4,0.4,2.3-0.4c6.7-6.2,13.3-12.4,20-18.7c1.6-1.5,1.5-1.4,3.2,0
				c0.6,0.5,0.6,0.9,0.3,1.6c-2.6,5-5.1,10.1-7.6,15.2c-0.3,0.5-0.5,1-0.3,1.6c0.2,0.6,0.7,1,1.4,1c0.8,0,1.2-0.4,1.6-1
				c1.5-3,3-6,4.5-9c1.1-2.2,2.2-4.3,3.3-6.5c3.6,3.4,7.2,6.7,10.9,10.2c-0.6,0.1-0.8-0.1-1.1-0.2c-2-0.8-4-1.6-5.9-2.4
				c-1.1-0.4-1.8-0.2-2.3,0.9c-0.9,1.9-1.9,3.7-2.8,5.6c-0.5,1-0.3,1.9,0.5,2.3c0.9,0.5,1.7,0.1,2.2-1c0.6-1.3,1.3-2.5,1.9-3.8
				c0.3-0.6,0.5-0.7,1.1-0.4c4.1,1.7,8.3,3.3,12.4,5c1,0.4,1.9,0.4,2.9,0c4.1-1.7,8.3-3.3,12.4-5c0.6-0.2,0.8-0.2,1.1,0.4
				c0.6,1.3,1.3,2.6,1.9,3.9c0.5,1,1.3,1.4,2.2,0.9c0.8-0.4,1.1-1.3,0.6-2.3c-0.9-1.9-1.8-3.7-2.8-5.5c-0.6-1.2-1.3-1.4-2.5-0.9
				c-1.8,0.7-3.6,1.5-5.4,2.2c-0.4,0.2-0.8,0.4-1.3,0.2c3.5-3.3,7.1-6.6,10.7-9.9c0.1,0.2,0.2,0.4,0.3,0.6c2.3,4.5,4.5,9,6.8,13.6
				c0.3,0.5,0.5,1.1,0.8,1.6c0.4,0.7,1.3,1,2,0.6c0.7-0.4,1-1.1,0.8-1.9c-0.1-0.3-0.3-0.6-0.4-0.9c-2.3-4.6-4.6-9.3-7-13.9
				c-0.9-1.9-0.9-1.8,0.6-3.3c0.6-0.6,0.9-0.6,1.6,0c6.9,6.5,13.9,13,20.9,19.5c0.9,0.8,1.8,0.8,2.4,0.1
				C136.7,107.3,136.6,106.4,135.7,105.6z M83.3,99.5c-1-0.9-1.9-1.8-2.9-2.7c-2.6-2.4-5.2-4.8-7.8-7.2c-0.5-0.4-0.5-0.7-0.2-1.3
				c0.9-1.8,1.8-3.6,2.8-5.5c2.8,5.6,5.5,11.1,8.3,16.5C83.4,99.4,83.4,99.5,83.3,99.5z M89,67.2c-0.8-1.4-1.7-2.9-2.5-4.3l-2.6,1.7
				c0,0.1,0.1,0.1,0.1,0.2c0.2,0.3,0.3,0.6,0.4,0.8c0.1,0,0.2,0.1,0.1,0.2c0,0-0.1,0-0.2-0.1c-4.9-2.8-9.9-5.6-14.8-8.4
				c-0.3-0.2-0.4-0.4-0.4-0.7c0-5.7,0-11.4,0-17.1c0,0,0,0,0.1-0.1c1.8,3.1,3.6,6.1,5.4,9.2c0.5,0.9,1,1.8,1.5,2.6l2.6-1.7
				c-2.8-4.8-5.6-9.6-8.4-14.5c2.1,0,4.1,0,6.2,0v-3.1c-1,0-2,0-3,0c1-0.6,1.8-1.1,2.6-1.5c4-2.3,8.1-4.6,12.1-6.9
				c0.6-0.3,1-0.4,1.6,0c4.4,2.5,8.8,5,13.1,7.6c0.5,0.2,1,0.5,1.6,0.8c-0.8,0.2-1.4,0.1-2,0.1c-3.6,0-7.1,0-10.7,0v3.1
				c5.3,0,10.6,0,15.9,0c-1,1.7-2,3.5-3,5.2l2.7,1.5c0.3-0.5,0.6-1.1,1-1.6c0.1-0.2,0.3-0.5,0.5-0.9c0,2.5,0,4.8,0,7.1
				c0,3.3,0,6.6,0,9.9c0,0.4,0,0.8-0.4,1c-4.9,2.8-9.8,5.6-14.8,8.4c-0.1,0-0.2,0.1-0.2,0c-0.1-0.1,0-0.2,0.1-0.2
				c1-2.1,2.3-4.1,3.5-6.1c0.9-1.5,1.7-2.9,2.6-4.4L97,53.5C94.3,58.1,91.7,62.6,89,67.2z M105.5,89.5c-3.5,3.2-6.9,6.5-10.4,9.7
				c-0.2,0.2-0.4,0.4-0.6,0.3c2.8-5.5,5.5-11,8.3-16.6c1,2.1,2,4,3,5.9C106,89.1,105.7,89.3,105.5,89.5z"/>
			<path class="st6" d="M109,35H87.6c-0.5,0-1-0.4-1-1v-1.2c0-0.5,0.4-1,1-1H109c0.2,0,0.3,0.1,0.3,0.3v2.5
				C109.3,34.9,109.2,35,109,35z"/>
			<path class="st6" d="M89.3,66.7l9.4-16.3c0.3-0.5,0.9-0.6,1.3-0.4l1,0.6c0.5,0.3,0.6,0.9,0.4,1.3L92,68.3
				c-0.1,0.1-0.3,0.2-0.4,0.1l-2.2-1.3C89.3,67,89.3,66.9,89.3,66.7z"/>
			<path class="st6" d="M70.1,34.6L79.5,51c0.3,0.5,0.1,1-0.4,1.3l-1,0.6c-0.5,0.3-1,0.1-1.3-0.4l-9.5-16.4c-0.1-0.1,0-0.3,0.1-0.4
				l2.2-1.3C69.8,34.4,70,34.5,70.1,34.6z"/>
			<path class="st6" d="M74.2,31.9h3.1c0.5,0,1,0.4,1,1v1.2c0,0.5-0.4,1-1,1h-3.1c-0.2,0-0.3-0.1-0.3-0.3v-2.5
				C73.9,32.1,74,31.9,74.2,31.9z"/>
			<path class="st6" d="M108.4,40l-1.6,2.7c-0.3,0.5-0.9,0.6-1.3,0.4l-1-0.6c-0.5-0.3-0.6-0.9-0.4-1.3l1.6-2.7
				c0.1-0.1,0.3-0.2,0.4-0.1l2.2,1.3C108.5,39.7,108.5,39.9,108.4,40z"/>
			<path class="st6" d="M84.9,66.4l-1.6-2.7c-0.3-0.5-0.1-1.1,0.4-1.3l1-0.6c0.5-0.3,1.1-0.1,1.3,0.4l1.6,2.7c0.1,0.1,0,0.3-0.1,0.4
				l-2.2,1.3C85.2,66.6,85,66.5,84.9,66.4z"/>
		</g>
	</g>
	<g>
		<path class="st6" d="M147.6,48.1c0.9,0.9,1.7,2.1,2.2,3.3c0.5,1.2,0.8,2.5,0.8,3.9v0.1c0,2.7-1.1,5.3-2.9,7.2
			c-0.5,0.5-1,0.9-1.5,1.3l-1.7,1.2l-4.1,2.8l-3.8,2.6l-3.8,2.6l-0.8,0.5c-1.2,0.8-2.6,1.3-4.1,1.3c-2,0-3.8-0.8-5.1-2.1
			c-1.3-1.3-2.1-3.1-2.1-5.1c0-1.5,0.4-2.9,1.3-4.1l0.5-0.8l2.6-3.8l2.6-3.8l2.8-4.1l1.2-1.7c0.4-0.6,0.8-1.1,1.3-1.5
			c0.7-0.7,1.5-1.3,2.4-1.7c1.5-0.8,3.1-1.2,4.8-1.2h0.1c1.4,0,2.7,0.3,3.9,0.8C145.6,46.4,146.7,47.1,147.6,48.1z"/>
		<g>
			<g>
				<g>
					<path class="st5" d="M136.5,46.2c-0.4,0-0.8-0.2-1-0.7l-2.1-5.5c-0.2-0.5,0.1-1.1,0.6-1.3c0.5-0.2,1.1,0.1,1.3,0.6l2.1,5.5
						c0.2,0.5-0.1,1.1-0.6,1.3C136.7,46.1,136.6,46.2,136.5,46.2z"/>
				</g>
				<g>
					<path class="st5" d="M140.8,44.7c-0.5,0-1-0.4-1-1l-0.2-5.5c0-0.6,0.4-1,1-1.1c0.6,0,1,0.4,1.1,1l0.2,5.5
						C141.9,44.2,141.4,44.6,140.8,44.7C140.9,44.7,140.9,44.7,140.8,44.7z"/>
				</g>
				<g>
					<path class="st5" d="M145.1,45.4c-0.1,0-0.3,0-0.4-0.1c-0.5-0.2-0.7-0.8-0.5-1.4l2.3-5.2c0.2-0.5,0.8-0.7,1.4-0.5
						c0.5,0.2,0.7,0.8,0.5,1.4l-2.3,5.2C145.9,45.2,145.5,45.4,145.1,45.4z"/>
				</g>
				<g>
					<path class="st5" d="M149,48.1c-0.2,0-0.5-0.1-0.7-0.3c-0.4-0.4-0.5-1-0.1-1.4l3.8-4.3c0.4-0.4,1-0.5,1.4-0.1
						c0.4,0.4,0.5,1,0.1,1.4l-3.8,4.3C149.6,48,149.3,48.1,149,48.1z"/>
				</g>
				<g>
					<path class="st5" d="M151.5,51.6c-0.4,0-0.8-0.2-0.9-0.6c-0.2-0.5,0-1.1,0.6-1.3l5.4-2.1c0.5-0.2,1.1,0,1.3,0.6
						c0.2,0.5,0,1.1-0.6,1.3l-5.4,2.1C151.7,51.6,151.6,51.6,151.5,51.6z"/>
				</g>
				<g>
					<path class="st5" d="M157.3,56.3C157.3,56.3,157.3,56.3,157.3,56.3l-5.9-0.1c-0.6,0-1-0.5-1-1c0-0.6,0.5-1,1-1l5.9,0.1
						c0.6,0,1,0.5,1,1C158.3,55.9,157.8,56.3,157.3,56.3z"/>
				</g>
				<g>
					<path class="st5" d="M156.5,62.6c-0.1,0-0.3,0-0.4-0.1l-5.4-2.6c-0.5-0.2-0.7-0.8-0.5-1.4c0.2-0.5,0.8-0.7,1.4-0.5l5.4,2.6
						c0.5,0.2,0.7,0.8,0.5,1.4C157.2,62.4,156.9,62.6,156.5,62.6z"/>
				</g>
				<g>
					<path class="st5" d="M152.3,67.9c-0.3,0-0.5-0.1-0.7-0.3l-4-4.1c-0.4-0.4-0.4-1.1,0-1.4c0.4-0.4,1.1-0.4,1.4,0l4,4.1
						c0.4,0.4,0.4,1.1,0,1.4C152.8,67.8,152.5,67.9,152.3,67.9z"/>
				</g>
				<g>
					<path class="st5" d="M147,71.3c-0.4,0-0.8-0.2-0.9-0.6l-1.9-4.5c-0.2-0.5,0-1.1,0.5-1.3c0.5-0.2,1.1,0,1.3,0.5l1.9,4.5
						c0.2,0.5,0,1.1-0.5,1.3C147.2,71.3,147.1,71.3,147,71.3z"/>
				</g>
				<g>
					<path class="st5" d="M142.8,73.6c-0.4,0-0.7-0.2-0.9-0.6l-1.8-3.7c-0.3-0.5,0-1.1,0.5-1.4c0.5-0.3,1.1,0,1.4,0.5l1.8,3.7
						c0.3,0.5,0,1.1-0.5,1.4C143.1,73.5,142.9,73.6,142.8,73.6z"/>
				</g>
				<g>
					<path class="st5" d="M138.6,75.8c-0.4,0-0.7-0.2-0.9-0.6l-1.5-3.2c-0.2-0.5,0-1.1,0.5-1.4c0.5-0.2,1.1,0,1.4,0.5l1.5,3.2
						c0.2,0.5,0,1.1-0.5,1.4C138.9,75.8,138.7,75.8,138.6,75.8z"/>
				</g>
				<g>
					<path class="st5" d="M134.7,78.6c-0.4,0-0.7-0.2-0.9-0.6l-1.7-3.4c-0.3-0.5-0.1-1.1,0.4-1.4c0.5-0.3,1.1-0.1,1.4,0.4l1.7,3.4
						c0.3,0.5,0.1,1.1-0.4,1.4C135,78.5,134.9,78.6,134.7,78.6z"/>
				</g>
				<g>
					<path class="st5" d="M121.4,63.9c-0.2,0-0.3,0-0.5-0.1l-3.6-2c-0.5-0.3-0.7-0.9-0.4-1.4c0.3-0.5,0.9-0.7,1.4-0.4l3.6,2
						c0.5,0.3,0.7,0.9,0.4,1.4C122.1,63.7,121.8,63.9,121.4,63.9z"/>
				</g>
				<g>
					<path class="st5" d="M124.1,59.8c-0.2,0-0.3,0-0.5-0.1l-3.7-1.9c-0.5-0.3-0.7-0.9-0.4-1.4c0.3-0.5,0.9-0.7,1.4-0.4l3.7,1.9
						c0.5,0.3,0.7,0.9,0.4,1.4C124.8,59.6,124.5,59.8,124.1,59.8z"/>
				</g>
				<g>
					<path class="st5" d="M127.7,56.2c-0.1,0-0.3,0-0.4-0.1l-4.9-2.3c-0.5-0.2-0.7-0.9-0.5-1.4c0.2-0.5,0.9-0.7,1.4-0.5l4.9,2.3
						c0.5,0.2,0.7,0.9,0.5,1.4C128.4,56,128,56.2,127.7,56.2z"/>
				</g>
				<g>
					<path class="st5" d="M130,51.7c-0.1,0-0.3,0-0.4-0.1l-5.3-2.2c-0.5-0.2-0.8-0.8-0.5-1.3c0.2-0.5,0.8-0.8,1.3-0.5l5.3,2.2
						c0.5,0.2,0.8,0.8,0.5,1.3C130.8,51.5,130.4,51.7,130,51.7z"/>
				</g>
				<g>
					<path class="st5" d="M132.2,47.7c-0.3,0-0.6-0.1-0.8-0.3l-3.6-4.1c-0.4-0.4-0.3-1.1,0.1-1.4c0.4-0.4,1.1-0.3,1.4,0.1l3.6,4.1
						c0.4,0.4,0.3,1.1-0.1,1.4C132.6,47.6,132.4,47.7,132.2,47.7z"/>
				</g>
				<g>
					<path class="st5" d="M137.4,53.8c-0.6,0-1-0.5-1-1l0-4.5c0-0.6,0.4-1,1-1c0,0,0,0,0,0c0.6,0,1,0.5,1,1l0,4.5
						C138.4,53.4,138,53.8,137.4,53.8C137.4,53.8,137.4,53.8,137.4,53.8z"/>
				</g>
				<g>
					<path class="st5" d="M146.5,52.4c0,0-0.1,0-0.1,0l-2.2-0.3c-0.6-0.1-1-0.6-0.9-1.2c0.1-0.6,0.6-0.9,1.2-0.9l2.2,0.3
						c0.6,0.1,1,0.6,0.9,1.2C147.4,52.1,147,52.4,146.5,52.4z"/>
				</g>
				<g>
					<path class="st5" d="M141.2,58.2c-0.6,0-1-0.5-1-1v-0.1c0-0.6,0.5-1,1-1s1,0.5,1,1v0.1C142.2,57.8,141.7,58.2,141.2,58.2z"/>
				</g>
				<g>
					<path class="st5" d="M143.8,60.2c-0.3,0-0.6-0.1-0.8-0.3c-0.4-0.4-0.4-1.1,0.1-1.4l2.3-2.1c0.4-0.4,1.1-0.4,1.4,0.1
						c0.4,0.4,0.4,1.1-0.1,1.4l-2.3,2.1C144.3,60.1,144.1,60.2,143.8,60.2z"/>
				</g>
				<g>
					<path class="st5" d="M133.1,59.8c-0.6,0-1-0.5-1-1v-0.1c0-0.6,0.5-1,1-1s1,0.5,1,1v0.1C134.1,59.3,133.6,59.8,133.1,59.8z"/>
				</g>
				<g>
					<path class="st5" d="M131.3,68.1c-0.2,0-0.3,0-0.5-0.1c-0.5-0.3-0.7-0.9-0.4-1.4l1.6-3.2c0.3-0.5,0.9-0.7,1.4-0.4
						c0.5,0.3,0.7,0.9,0.4,1.4l-1.6,3.2C132.1,67.9,131.7,68.1,131.3,68.1z"/>
				</g>
				<g>
					<path class="st5" d="M124.5,68c-0.3,0-0.7-0.2-0.9-0.5c-0.3-0.5-0.2-1.1,0.3-1.4l1.8-1.2c0.5-0.3,1.1-0.2,1.4,0.3
						c0.3,0.5,0.2,1.1-0.3,1.4l-1.8,1.2C124.9,67.9,124.7,68,124.5,68z"/>
				</g>
			</g>
			<g>
				<g>
					<path class="st5" d="M124.4,75.9C124.4,75.9,124.4,76,124.4,75.9L124.4,75.9L124.4,75.9z"/>
				</g>
				<g>
					<path class="st5" d="M152.4,55.2c0-1.5-0.3-3-0.9-4.4c-0.6-1.4-1.4-2.7-2.5-3.8l0,0c-1.1-1.1-2.4-1.9-3.8-2.5
						c-1.4-0.6-2.9-0.9-4.4-0.9l-0.1,0c-1.9,0-3.8,0.5-5.5,1.3c-1,0.5-1.9,1.2-2.7,2c-0.5,0.5-1,1.1-1.5,1.7l-1.2,1.8l-2.9,4.2
						l-2.7,3.9l-2.7,4l-0.6,0.8c-1,1.4-1.5,3.1-1.5,4.8c0,2.3,0.9,4.4,2.5,6c0.3,0.3,0.7,0.6,1,0.9l1.5-1.5c-0.4-0.2-0.7-0.5-1-0.8
						c-1.2-1.2-1.9-2.8-1.9-4.6c0-1.3,0.4-2.6,1.2-3.7l0.6-0.8l2.7-3.9l2.7-3.9l2.9-4.2l1.2-1.8c0.4-0.5,0.8-1,1.2-1.4
						c0.7-0.7,1.4-1.2,2.3-1.6c1.4-0.7,2.9-1.1,4.5-1.1h0.1c1.3,0,2.5,0.3,3.7,0.8c1.1,0.5,2.2,1.2,3.1,2.1c0.9,0.9,1.6,2,2.1,3.1
						c0.5,1.2,0.7,2.4,0.8,3.7v0.1c0,2.5-1,5-2.7,6.8c-0.4,0.4-0.9,0.8-1.4,1.2l-1.8,1.2l-4.2,2.9l-3.9,2.7l-3.9,2.7l-0.8,0.6
						c-1.1,0.8-2.4,1.1-3.7,1.1c0,0-0.1,0-0.1,0v2c0,0,0.1,0,0.1,0c1.7,0,3.4-0.5,4.8-1.5l0.8-0.6l3.9-2.7l3.9-2.7l4.2-2.9l1.8-1.2
						c0.6-0.4,1.2-0.9,1.7-1.5c2.1-2.2,3.3-5.1,3.3-8.2L152.4,55.2z"/>
				</g>
			</g>
			<g>
				<path class="st5" d="M124.1,75.6c-0.5,0-1-0.3-1.5-0.7c-0.8-0.6-1.6-1.7-1.6-1.7c-0.4-0.4-0.3-1.1,0.1-1.4s1.1-0.3,1.4,0.1l0,0
					c0.2,0.3,0.9,1,1.3,1.4c0.2,0.2,0.3,0.2,0.4,0.3c0.3,0.1,0.6,0.3,0.8,0.6c0.2,0.5-0.1,1.1-0.6,1.3
					C124.3,75.6,124.2,75.6,124.1,75.6z M123.7,73.6C123.7,73.6,123.7,73.6,123.7,73.6C123.7,73.6,123.7,73.6,123.7,73.6z
					 M123.7,73.6C123.7,73.6,123.7,73.6,123.7,73.6C123.7,73.6,123.7,73.6,123.7,73.6z M123.7,73.6
					C123.7,73.6,123.7,73.6,123.7,73.6C123.7,73.6,123.7,73.6,123.7,73.6z"/>
			</g>
			<g>
				<path class="st5" d="M128.1,76.7c-0.4,0-0.7-0.1-0.7-0.1l0.5-2c0,0,0,0,0,0c0,0,0.3,0.1,0.9,0c0.3,0,0.4-0.1,0.5-0.1
					c0.3-0.2,0.6-0.3,1-0.2c0.5,0.2,0.8,0.8,0.6,1.3c-0.2,0.6-1,0.8-1.7,1C128.7,76.6,128.4,76.7,128.1,76.7z M128.9,74.9
					C128.9,74.9,128.9,74.9,128.9,74.9C128.9,74.9,128.9,74.9,128.9,74.9z M128.9,74.9C128.9,74.9,128.9,74.9,128.9,74.9
					C128.9,74.9,128.9,74.9,128.9,74.9z"/>
			</g>
		</g>
	</g>
	<path class="st5" d="M59.4,62.9c0.3,0.3,0.4,0.6,0.5,0.9c0.1,0.5,0,1.2,0.3,1.6c0.3,0.4,0.9,0,1.4,0.2c0.5,0.2,0.8,0,1.1-0.4
		c0.1-0.3,0.3-0.5,0.5-0.7c0.4-0.5,1-0.6,1.5-0.2c0.4,0.3,0.6,0.9,0.3,1.5c-0.2,0.3-0.5,0.7-0.7,1c-0.2,0.3-0.3,0.5-0.1,0.8
		c0.2,0.3,0.4,0.8,0.4,1.2c0,0.3,0.1,0.4,0.4,0.3c0.5-0.1,1-0.2,1.5-0.2c0.7-0.1,1.3,0.3,1.4,0.9c0.1,0.6-0.3,1.2-1.1,1.3
		c-0.6,0.1-1.2,0.2-1.8,0.2c-0.4,0-0.6,0.2-0.7,0.6c-0.3,0.9-0.3,0.9,0.5,1.5c0.2,0.2,0.4,0.3,0.6,0.5c0.4,0.4,0.4,1,0,1.4
		c-0.4,0.4-0.9,0.5-1.4,0.2c-0.4-0.2-0.7-0.5-1.1-0.8c-0.2-0.1-0.3-0.2-0.5,0c-0.2,0.2-0.5,0.4-0.7,0.6c-0.2,0.1-0.2,0.3-0.2,0.5
		c0.1,0.7,0.2,1.3,0.3,2c0.1,0.7-0.3,1.2-0.9,1.3c-0.6,0.1-1.1-0.3-1.3-1c-0.1-0.6,0-1.4-0.3-1.7c-0.3-0.4-1.1,0-1.7-0.3
		c-0.2-0.1-0.3,0-0.5,0.2c-0.3,0.4-0.6,0.8-0.9,1.2c-0.4,0.4-1,0.4-1.4,0.1c-0.4-0.3-0.5-1-0.2-1.4c0.3-0.4,0.8-0.8,0.9-1.3
		c0.1-0.5-0.5-0.9-0.5-1.5c0-0.5-0.3-0.6-0.7-0.5c-0.4,0.1-0.9,0.2-1.4,0.2c-0.7,0-1.2-0.3-1.3-0.9c-0.1-0.6,0.3-1.1,1-1.3
		c0.7-0.1,1.3-0.2,2-0.3c0.3,0,0.5-0.2,0.6-0.5c0.3-1,0.3-1-0.5-1.7c-0.2-0.1-0.3-0.2-0.5-0.4c-0.3-0.4-0.4-0.9-0.1-1.3
		c0.3-0.4,0.8-0.6,1.3-0.4c0.5,0.2,0.8,0.5,1.2,0.8c0.2,0.2,0.4,0.1,0.6,0c0.8-0.4,0.9-1.1,0.7-1.9c-0.1-0.4-0.2-0.9-0.2-1.4
		c0-0.4,0.2-0.8,0.6-1C58.7,62.6,59,62.7,59.4,62.9z M61.5,72.4c0.6-0.8,0.9-1.6,1-2.4c0.2-1.6-1-2.6-2.6-2.1
		c-1.7,0.5-3.1,2.5-3,4.3c0.1,1.2,1,2,2.2,1.7C60.2,73.7,60.9,73.1,61.5,72.4z"/>
	<path class="st6" d="M61.5,72.4c-0.6,0.7-1.3,1.3-2.3,1.5c-1.2,0.2-2.1-0.5-2.2-1.7c-0.1-1.8,1.3-3.7,3-4.3
		c1.6-0.5,2.7,0.5,2.6,2.1C62.4,70.8,62.1,71.6,61.5,72.4z"/>
</g>
</svg>
