<?xml version="1.0" encoding="utf-8"?>
<!-- Generator: Adobe Illustrator 24.1.2, SVG Export Plug-In . SVG Version: 6.00 Build 0)  -->
<svg version="1.1" id="Layer_1" xmlns="http://www.w3.org/2000/svg" xmlns:xlink="http://www.w3.org/1999/xlink" x="0px" y="0px"
	 viewBox="0 0 179.8 180.6" style="enable-background:new 0 0 179.8 180.6;" xml:space="preserve">
<style type="text/css">
	.st0{fill:#6E6F72;}
	.st1{fill:#EEC540;}
	.st2{fill:#016E90;}
	.st3{fill:#F2F3F1;}
</style>
<g id="Group_11" transform="translate(-2119 161)">
	<path id="Rectangle_12" class="st0" d="M2159.2-157.1h98.5c20.9,0,37.9,17,37.9,37.9v98.5c0,20.9-17,37.9-37.9,37.9h-98.5
		c-20.9,0-37.9-17-37.9-37.9v-98.5C2121.3-140.2,2138.3-157.1,2159.2-157.1z"/>
</g>
<g>
	<path class="st1" d="M99,69.9c0.8-0.9,1.2-1,2.4-0.5c10.3,4.7,19.1,11.5,26.7,19.7c0.6,0.6,0.9,1.3,0.4,2.1
		c-0.5,0.8-1.2,0.7-1.9,0.5c-12.5-2.9-24-7.9-34-16.1c-0.4-0.4-0.8-0.4-1.3-0.3c-0.9,0.3-1.9,0.4-2.9,0.1c-0.4-0.1-0.6,0-0.7,0.5
		c-0.8,6.6-1.6,13.2-2.5,19.7c-0.5,3.6-0.9,7.2-1.4,10.8c-0.1,1.1-0.7,1.6-1.6,1.5s-1.3-0.8-1.2-1.9c1.3-10,2.6-20,3.9-30.1
		c0-0.3,0-0.5,0-0.8c0.2-0.6,0.2-1.1-0.4-1.6c-0.7-0.6-1.3-1.4-1.5-2.2c-0.2-0.8-0.6-0.8-1.3-0.6c-9.6,3.8-17.9,9.7-25.3,16.8
		c0,0-0.1,0.1,0,0.2c0.1,0,0.2,0,0.2,0c8-2.3,15.6-5.6,22.6-10.2c1.1-0.7,1.4-0.7,2.4,0.1c0.4,1.1,0.3,1.6-0.7,2.2
		c-8.8,5.8-18.4,9.6-28.7,12c-0.7,0.2-1.3,0-1.7-0.7s-0.1-1.3,0.4-1.9c4.5-4.9,9.5-9.2,15-13c5-3.5,10.4-6.4,16.1-8.5
		c0.3-0.1,0.6-0.1,0.7-0.5c0.4-2.1,1.7-3.6,3.5-4.7c0.1,0,0.1-0.1,0.2-0.2c1.5-0.5,3-0.9,4.6-0.5c0.4,0.1,0.5-0.2,0.5-0.5
		c0.3-2.2,0.6-4.4,0.7-6.6c0.3-6.4-0.2-12.8-1.4-19.1c-0.3-1.7-0.7-3.4-1.2-5.1c-0.3,1-0.5,2-0.8,2.9c-1.7,8-2.4,16.1-1.7,24.2
		c0.1,1.5,0,1.7-1.1,2.2c-1.4-0.2-1.5-0.5-1.7-2.2c-0.4-4.6-0.4-9.3,0-13.9c0.6-6.3,1.7-12.5,3.7-18.5c0.1-0.2,0.1-0.5,0.2-0.7
		c0.2-0.6,0.6-1.1,1.3-1.1c0.8,0,1.2,0.4,1.4,1.1c0.9,2.9,1.7,5.8,2.3,8.8c1.4,6.9,2.1,13.9,1.8,20.9c-0.1,2.7-0.4,5.4-0.9,8.1
		c-0.1,0.5,0,0.8,0.4,1.2c1.5,1.4,2.1,3.3,2.1,5.3c-0.2,1.5-0.6,2.8-1.5,3.9c-0.5,0.6-0.4,0.8,0.1,1.3c7.9,6.3,16.9,10.5,26.6,13.4
		c0.2,0.1,0.4,0.2,0.6,0c0-0.3-0.2-0.4-0.4-0.5c-6.5-6.2-13.7-11.3-21.8-15.1C99,71.4,98.8,71.1,99,69.9z M89.5,64.4
		c-2.2,0-4.2,1.9-4.2,4.1c0,2.3,1.9,4.2,4.2,4.2c2.2,0,4.1-1.9,4.2-4.1C93.7,66.3,91.8,64.4,89.5,64.4z"/>
	<path class="st2" d="M126.1,69.5c0,1.4-0.2,3.7-0.7,6c-0.2,1.2-0.8,1.8-1.8,1.6c-0.8-0.1-1.2-1-1-2.1c0.6-3.2,0.8-6.3,0.5-9.5
		c-0.9-9-4.7-16.5-11.5-22.5c-3.2-2.8-6.8-4.9-10.9-6.3c-0.2-0.1-0.4-0.1-0.7-0.2c-0.8-0.3-1.1-1-0.8-1.8c0.3-0.7,1-1.1,1.8-0.8
		c2.6,0.8,5.1,2,7.4,3.4C119.4,43.8,126.1,55.8,126.1,69.5z"/>
	<path class="st2" d="M52.8,68.8c0-15.9,10.1-29.9,24.8-34.9c1.2-0.4,2.2,0.2,2.2,1.2c0,0.8-0.5,1.2-1.2,1.4c-3.6,1.2-7,3-10,5.4
		c-9,7.3-13.2,16.8-12.9,28.3c0,1.6,0.3,3.3,0.6,4.9c0.2,1.1-0.3,1.9-1.4,1.9c-0.9,0-1.3-0.5-1.4-1.3c-0.1-0.7-0.3-1.4-0.4-2.2
		C53,71.9,52.8,70.2,52.8,68.8z"/>
	<path class="st2" d="M81.6,77.6c-0.9-0.8-1.3-0.8-2.4-0.1c-7,4.6-14.6,7.9-22.6,10.2c-0.1,0-0.2,0-0.2,0c-0.1-0.1,0-0.2,0-0.2
		c7.4-7.1,15.7-13,25.3-16.8c0.7-0.3,1-0.3,1.3,0.6s0.8,1.7,1.5,2.2c0.6,0.5,0.6,1,0.4,1.6C83.8,76,82.7,76.8,81.6,77.6z"/>
	<path class="st2" d="M99,69.9c-0.2,1.2,0,1.6,1.2,2.1c8.2,3.7,15.3,8.9,21.8,15.1c0.1,0.1,0.3,0.2,0.4,0.5c-0.2,0.2-0.4,0.1-0.6,0
		c-9.7-2.9-18.7-7.1-26.6-13.4c-0.6-0.4-0.6-0.7-0.1-1.3c1-1.1,1.4-2.5,1.5-3.9C97.4,69.3,98.2,69.6,99,69.9z"/>
	<path class="st2" d="M85.9,59.8c1.2-0.5,1.3-0.7,1.1-2.2c-0.7-8.2-0.1-16.2,1.7-24.2c0.2-1,0.4-2,0.8-2.9c0.6,1.7,0.9,3.4,1.2,5.1
		c1.2,6.3,1.7,12.7,1.4,19.1c-0.1,2.2-0.3,4.4-0.7,6.6c-0.1,0.3-0.1,0.6-0.5,0.5c-1.6-0.4-3.1,0-4.6,0.5
		C86.2,61.4,86,60.6,85.9,59.8z"/>
	<path class="st2" d="M61.4,68.3c0.5-10.9,5.4-19.3,15-24.6c0.6-0.4,1.3-0.5,1.9,0c0.5,0.4,0.6,0.9,0.5,1.4
		c-0.1,0.7-0.7,0.9-1.2,1.2c-5.1,2.7-8.9,6.7-11.3,12c-1.5,3.4-2.2,6.9-2.2,10.6c0,0.4,0,0.8,0,1.2c0,0.8-0.5,1.2-1.2,1.3
		c-0.8,0.1-1.4-0.3-1.5-1.1C61.3,69.6,61.4,68.9,61.4,68.3z"/>
	<path class="st2" d="M114.8,68.5c-0.4-9.9-4.7-17.5-13.4-22.4c-0.5-0.3-1-0.5-1.1-1.1c-0.2-0.6,0-1.1,0.5-1.5s1.1-0.4,1.7-0.1
		c2.9,1.5,5.5,3.4,7.7,5.8c5.2,5.8,7.7,12.5,7.5,20.3c0,1.2-0.5,1.8-1.5,1.7c-0.8,0-1.3-0.5-1.3-1.3
		C114.8,69.6,114.8,69.1,114.8,68.5z"/>
	<path class="st1" d="M98,106.5c0,1-0.4,1.5-1.3,1.6c-0.8,0.1-1.4-0.4-1.5-1.3c-0.5-4.3-1.1-8.6-1.6-12.9c-0.5-4-1-8-1.5-12
		c-0.1-1.1,0.2-1.9,1-2.1c0.9-0.2,1.7,0.4,1.8,1.4c0.5,4.1,1,8.1,1.5,12.2c0.5,4.2,1.1,8.4,1.6,12.7C97.9,106.3,97.9,106.5,98,106.5
		z"/>
	<path class="st2" d="M66.2,93.6c0.4,0,0.7,0.2,1,0.5c2.4,2.1,5.1,3.8,8,5.2c0.9,0.4,1.2,1.2,0.8,2c-0.4,0.7-1.1,1-2,0.5
		c-3.2-1.5-6-3.4-8.6-5.6c-0.6-0.5-0.8-1-0.5-1.7C65.1,93.9,65.5,93.6,66.2,93.6z"/>
	<path class="st2" d="M114.2,94.9c0,0.6-0.2,0.9-0.6,1.2c-2.6,2.3-5.5,4.2-8.7,5.7c-0.9,0.4-1.7,0.1-2-0.6c-0.4-0.8-0.1-1.5,0.8-1.9
		c2.9-1.4,5.6-3.1,8.1-5.2c0.5-0.4,1.1-0.6,1.7-0.3C114,94,114.2,94.5,114.2,94.9z"/>
	<path class="st2" d="M105.4,91.1c0,1.1-1.9,2.3-2.9,1.9s-1.2-1.7-0.3-2.4c0.4-0.3,0.8-0.6,1.3-0.8
		C104.4,89.4,105.4,90.1,105.4,91.1z"/>
	<path class="st2" d="M73.6,91c0-0.1,0-0.3,0.1-0.4c0.2-0.6,0.7-0.9,1.3-0.8c0.7,0,2.1,0.9,2.2,1.5c0.2,0.6,0,1.1-0.4,1.5
		c-0.1,0.1-0.2,0.2-0.4,0.2C75.5,93.5,73.6,92.2,73.6,91z"/>
	<path class="st2" d="M89.5,64.4c2.3,0,4.2,1.9,4.2,4.2c0,2.3-1.9,4.1-4.2,4.1c-2.3,0-4.2-1.9-4.2-4.2
		C85.3,66.3,87.3,64.4,89.5,64.4z"/>
	<circle class="st1" cx="89.4" cy="68.6" r="2.1"/>
</g>
<g>
	<path class="st3" d="M15.6,121.1h4l2.7,11.8l2.8-11.7h3.8l2.9,11.7l2.6-11.8h3.8l-4.6,17h-3.5l-3.2-12.6l-3.1,12.6h-3.4L15.6,121.1
		z"/>
	<path class="st3" d="M39.9,121.1h3.4v3h-3.4V121.1z M39.9,125.7h3.3v12.4h-3.3V125.7z"/>
	<path class="st3" d="M46.2,125.7h3.2v1.7c0.5-0.7,1.1-1.3,1.8-1.6c0.7-0.3,1.4-0.5,2.1-0.5c1.4,0,2.5,0.4,3.1,1.1
		c0.7,0.7,1,1.9,1,3.5v8.2h-3.3v-7.8c0-0.9-0.2-1.5-0.5-1.8s-0.8-0.5-1.3-0.5c-0.4,0-0.8,0.1-1.1,0.2s-0.6,0.3-0.9,0.5
		c-0.2,0.2-0.4,0.5-0.6,0.8c-0.2,0.3-0.2,0.6-0.2,1v7.5h-3.3V125.7z"/>
	<path class="st3" d="M69,136.5c-1,1.4-2.2,2-3.9,2c-1.7,0-3.1-0.6-3.9-1.8c-0.9-1.2-1.3-2.8-1.3-4.9c0-1,0.1-1.9,0.4-2.7
		c0.2-0.8,0.6-1.5,1.1-2.1s1-1,1.7-1.3s1.4-0.5,2.3-0.5c0.6,0,1.2,0.1,1.8,0.3c0.6,0.2,1.2,0.6,1.7,1.3V121h3.3v17H69V136.5z
		 M68.9,131.7c0-0.8-0.1-1.4-0.2-1.9s-0.4-0.9-0.7-1.2c-0.3-0.3-0.6-0.5-0.9-0.6s-0.7-0.1-1-0.1c-0.4,0-0.7,0.1-1,0.2
		s-0.6,0.4-0.9,0.7c-0.2,0.3-0.4,0.7-0.6,1.2s-0.2,1.1-0.2,1.8s0.1,1.4,0.2,1.9c0.1,0.5,0.3,0.9,0.6,1.2c0.3,0.3,0.5,0.5,0.8,0.7
		s0.7,0.2,1,0.2c0.8,0,1.4-0.2,2-0.7c0.3-0.3,0.6-0.7,0.7-1.2c0.2-0.5,0.2-1,0.2-1.8V131.7z"/>
	<path class="st3" d="M84.3,124.1h-5.1V121H93v3.1h-5.1v14h-3.6V124.1z"/>
	<path class="st3" d="M92.5,125.7h3.3v7.8c0,0.9,0.2,1.5,0.5,1.8s0.8,0.5,1.3,0.5c0.4,0,0.8-0.1,1.1-0.2c0.3-0.1,0.5-0.3,0.8-0.5
		s0.5-0.5,0.6-0.8c0.2-0.3,0.2-0.6,0.2-1v-7.5h3.3v12.4h-3.2v-1.7c-0.5,0.7-1.1,1.3-1.7,1.6s-1.3,0.5-2.1,0.5
		c-1.4,0-2.5-0.4-3.1-1.1c-0.7-0.7-1-1.9-1-3.5L92.5,125.7L92.5,125.7z"/>
	<path class="st3" d="M106.6,125.7h3.2v1.7c0.4-0.7,0.9-1.1,1.5-1.5c0.6-0.3,1.2-0.5,1.9-0.5c0.3,0,0.6,0,0.8,0
		c0.2,0,0.4,0.1,0.5,0.1l-0.4,3c-0.4-0.1-0.9-0.1-1.4-0.1c-0.4,0-0.7,0-1,0.1s-0.6,0.3-0.9,0.5c-0.3,0.3-0.5,0.5-0.6,0.9
		c-0.1,0.3-0.2,0.6-0.2,1v7.2h-3.3L106.6,125.7L106.6,125.7z"/>
	<path class="st3" d="M116.6,121.1h3.3v6.1c0.9-1.3,2.2-1.9,3.8-1.9c1.7,0,3,0.6,3.9,1.8c0.9,1.2,1.3,2.8,1.3,4.8
		c0,1-0.1,1.9-0.4,2.7c-0.2,0.8-0.6,1.5-1.1,2.1s-1,1-1.7,1.3s-1.4,0.5-2.3,0.5c-0.7,0-1.3-0.1-1.9-0.4c-0.6-0.3-1.2-0.7-1.7-1.4
		v1.4h-3.2L116.6,121.1L116.6,121.1z M119.9,132c0,0.8,0.1,1.5,0.2,1.9c0.1,0.5,0.4,0.9,0.7,1.2c0.3,0.3,0.6,0.5,1,0.6
		c0.3,0.1,0.7,0.1,1,0.1c0.4,0,0.7-0.1,1-0.2s0.6-0.4,0.9-0.7c0.2-0.3,0.4-0.7,0.6-1.2c0.1-0.5,0.2-1.1,0.2-1.8s-0.1-1.3-0.2-1.8
		s-0.3-0.9-0.6-1.2c-0.2-0.3-0.5-0.5-0.8-0.7c-0.3-0.1-0.7-0.2-1-0.2c-0.4,0-0.8,0.1-1.1,0.2c-0.3,0.1-0.6,0.3-0.9,0.5
		c-0.3,0.3-0.6,0.7-0.7,1.1c-0.2,0.5-0.2,1.1-0.2,1.8L119.9,132L119.9,132z"/>
	<path class="st3" d="M131.4,121.1h3.4v3h-3.4V121.1z M131.5,125.7h3.3v12.4h-3.3V125.7z"/>
	<path class="st3" d="M137.8,125.7h3.2v1.7c0.5-0.7,1.1-1.3,1.8-1.6c0.7-0.3,1.4-0.5,2.1-0.5c1.4,0,2.5,0.4,3.1,1.1s1,1.9,1,3.5v8.2
		h-3.3v-7.8c0-0.9-0.2-1.5-0.5-1.8s-0.8-0.5-1.3-0.5c-0.4,0-0.8,0.1-1.1,0.2s-0.6,0.3-0.9,0.5c-0.2,0.2-0.4,0.5-0.6,0.8
		s-0.2,0.6-0.2,1v7.5h-3.3V125.7z"/>
	<path class="st3" d="M163.3,134.2c-0.2,1.4-0.8,2.5-1.7,3.2s-2.2,1.1-3.9,1.1c-2.1,0-3.6-0.6-4.7-1.7s-1.6-2.8-1.6-4.9
		c0-1,0.2-2,0.5-2.8s0.7-1.5,1.3-2.1c0.5-0.6,1.2-1,2-1.3s1.6-0.4,2.5-0.4c1.9,0,3.3,0.5,4.3,1.6s1.4,2.6,1.4,4.4v1.3h-8.6
		c0,1,0.3,1.8,0.8,2.3s1.2,0.8,2.1,0.8c1.3,0,2.1-0.6,2.3-1.7h3.3V134.2z M160.2,130.5c0-0.9-0.2-1.5-0.6-2c-0.4-0.5-1.1-0.7-2-0.7
		c-0.4,0-0.8,0.1-1.2,0.2c-0.3,0.1-0.6,0.3-0.8,0.6c-0.2,0.2-0.4,0.5-0.5,0.9c-0.1,0.3-0.2,0.7-0.2,1.1h5.3V130.5z"/>
</g>
<text transform="matrix(1 0 0 1 -197.7969 138.1035)" style="display:none;fill:#F2F3F1;enable-background:new    ; font-family:'AktivGroteskCorp-Bold'; font-size:23.8404px;">Wind Turbine</text>
</svg>
