<?xml version="1.0" encoding="utf-8"?>
<!-- Generator: Adobe Illustrator 24.1.0, SVG Export Plug-In . SVG Version: 6.00 Build 0)  -->
<svg version="1.1" id="Layer_1" xmlns="http://www.w3.org/2000/svg" xmlns:xlink="http://www.w3.org/1999/xlink" x="0px" y="0px"
	 viewBox="0 0 179.8 180.6" style="enable-background:new 0 0 179.8 180.6;" xml:space="preserve">
<style type="text/css">
	.st0{fill:#6E6F72;}
</style>
<g id="Group_18" transform="translate(-50 -140)">
	<g id="Group_17" transform="translate(50 140)">
		<g>
			<g id="Group_16">
				<path id="Path_51" class="st0" d="M171.9,79L171.9,79L101.2,8.3c-6.2-6.2-16.3-6.2-22.6,0L7.9,79L7.9,79
					c-6.2,6.2-6.2,16.3,0.1,22.6c2.8,2.8,6.6,4.5,10.6,4.6c0.2,0,0.3,0,0.5,0h2.8v52c0,10.3,8.4,18.7,18.7,18.7h27.7
					c2.8,0,5.1-2.3,5.1-5.1v-40.8c0-4.7,3.8-8.5,8.5-8.5H98c4.7,0,8.5,3.8,8.5,8.5v40.8c0,2.8,2.3,5.1,5.1,5.1h27.7
					c10.3,0,18.7-8.4,18.7-18.7v-52h2.6c8.8,0,16-7.2,16-16C176.5,86.1,174.9,82,171.9,79L171.9,79z"/>
			</g>
		</g>
	</g>
</g>
</svg>
