<?xml version="1.0" encoding="utf-8"?>
<!-- Generator: Adobe Illustrator 24.1.0, SVG Export Plug-In . SVG Version: 6.00 Build 0)  -->
<svg version="1.1" id="Layer_1" xmlns="http://www.w3.org/2000/svg" xmlns:xlink="http://www.w3.org/1999/xlink" x="0px" y="0px"
	 viewBox="0 0 200 200" style="enable-background:new 0 0 200 200;" xml:space="preserve">
<style type="text/css">
	.st0{fill:#EEC540;}
</style>
<g>
	<path id="Path_53" class="st0" d="M100,4.5C47.2,4.5,4.5,47.2,4.5,100s42.8,95.5,95.5,95.5s95.5-42.8,95.5-95.5
		C195.5,47.3,152.7,4.5,100,4.5z M42.8,103c-0.7,0.6-1.6,0.9-2.5,0.9c-2.2,0-4-1.8-4-4c0,0,0,0,0,0c0-4.6,0.6-9.1,1.6-13.6
		c0,0,0.8-3.5,0.8-3.6c9.5-33.8,44.7-53.6,78.5-44.1c16.3,4.6,30.2,15.5,38.4,30.3c1,1.9,0.3,4.4-1.7,5.4c-0.1,0-0.1,0.1-0.2,0.1
		l-7.2,3.4c-1.9,0.9-4.2,0.1-5.2-1.7c-13.1-22.9-42.3-30.7-65.1-17.6c-6.7,3.9-12.4,9.3-16.5,15.8l5.7,1.9c2.1,0.7,3.2,3,2.5,5
		c-0.2,0.7-0.7,1.3-1.2,1.8L42.8,103C42.8,103.1,42.8,103,42.8,103z M162.5,113.6c0,0-0.8,3.5-0.8,3.6
		c-9.5,33.8-44.6,53.6-78.5,44.1C66.8,156.7,53,145.8,44.8,131c-1-1.9-0.3-4.4,1.7-5.4c0.1,0,0.1-0.1,0.2-0.1l7.2-3.4
		c1.9-0.9,4.2-0.1,5.2,1.7c13.1,22.9,42.3,30.7,65.1,17.6c6.7-3.9,12.4-9.3,16.5-15.8l-5.7-1.9c-2.1-0.7-3.2-3-2.5-5
		c0.2-0.7,0.7-1.3,1.2-1.8l23.9-19.9c0,0,0,0,0.1,0c0.7-0.6,1.6-0.9,2.5-0.9c2.2,0,4,1.8,4,4c0,0,0,0,0,0
		C164,104.6,163.5,109.1,162.5,113.6L162.5,113.6z"/>
</g>
</svg>
