<?xml version="1.0" encoding="utf-8"?>
<!-- Generator: Adobe Illustrator 24.1.0, SVG Export Plug-In . SVG Version: 6.00 Build 0)  -->
<svg version="1.1" id="Layer_1" xmlns="http://www.w3.org/2000/svg" xmlns:xlink="http://www.w3.org/1999/xlink" x="0px" y="0px"
	 viewBox="0 0 200 200" style="enable-background:new 0 0 200 200;" xml:space="preserve">
<style type="text/css">
	.st0{fill:#EEC540;}
	.st1{fill:#016E90;}
</style>
<g id="Group_35" transform="translate(-8 -8)">
	<g id="Group_33" transform="translate(26.919 38.048)">
		<path id="Path_55" class="st0" d="M42.9,86.3h32.7v65.4H42.9V86.3z"/>
		<path id="Path_56" class="st0" d="M130.1,59.1h32.7v92.6h-32.7V59.1z"/>
	</g>
	<g id="Group_34" transform="translate(8 8)">
		<path id="Path_57" class="st1" d="M181.7,86.4H149c-1.5,0-2.7,1.2-2.7,2.7V179h-5.4V18.3c0-1.5-1.2-2.7-2.7-2.7h-32.7
			c-1.5,0-2.7,1.2-2.7,2.7V179h-5.4v-62.7c0-1.5-1.2-2.7-2.7-2.7H61.9c-1.5,0-2.7,1.2-2.7,2.7V179h-5.4V67.3c0-1.5-1.2-2.7-2.7-2.7
			h0H18.3c-1.5,0-2.7,1.2-2.7,2.7l0,0v114.4c0,1.5,1.2,2.7,2.7,2.7h163.5c1.5,0,2.7-1.2,2.7-2.7V89.1
			C184.5,87.6,183.2,86.4,181.7,86.4z M48.2,179H21v-13.6h10.9c1.5,0,2.7-1.2,2.7-2.7c0-1.5-1.2-2.7-2.7-2.7c0,0,0,0,0,0H21V70h27.2
			V179z M91.8,179H64.6v-59.9h27.2V179z M135.4,179h-27.2V42.8h10.9c1.5,0,2.7-1.2,2.7-2.7c0-1.5-1.2-2.7-2.7-2.7h-10.9V21h27.2
			L135.4,179z M179,179h-27.2V91.8H179L179,179z"/>
		<path id="Path_61" class="st1" d="M130,37.3h-2.7c-1.5,0-2.7,1.2-2.7,2.7c0,1.5,1.2,2.7,2.7,2.7c0,0,0,0,0,0h2.7
			c1.5,0,2.7-1.2,2.7-2.7C132.7,38.6,131.5,37.3,130,37.3z"/>
		<path id="Path_62" class="st1" d="M42.8,159.9h-2.7c-1.5,0-2.7,1.2-2.7,2.7s1.2,2.7,2.7,2.7h2.7c1.5,0,2.7-1.2,2.7-2.7
			S44.3,159.9,42.8,159.9z"/>
	</g>
</g>
</svg>
