<?xml version="1.0" encoding="utf-8"?>
<!-- Generator: Adobe Illustrator 24.1.0, SVG Export Plug-In . SVG Version: 6.00 Build 0)  -->
<svg version="1.1" id="Layer_1" xmlns="http://www.w3.org/2000/svg" xmlns:xlink="http://www.w3.org/1999/xlink" x="0px" y="0px"
	 viewBox="0 0 200 200" style="enable-background:new 0 0 200 200;" xml:space="preserve">
<style type="text/css">
	.st0{fill:#016E90;}
	.st1{fill:#F2F3F1;}
</style>
<g id="Group_31" transform="translate(-210 -974.562)">
	<circle id="Ellipse_14" class="st0" cx="310" cy="1074.6" r="94.3"/>
	<g id="Group_30" transform="translate(144.667 990)">
		<g id="Group_29" transform="translate(85.333)">
			<path id="Path_54" class="st1" d="M81.4,84.5l25.8-24.4c5.4-5.6,5.2-14.6-0.4-20c-5.5-5.3-14.1-5.3-19.6,0L50.7,74.5
				c-2,2-3.3,4.5-3.9,7.2c-0.2,0.9-0.3,1.9-0.3,2.8c0,1,0.1,1.9,0.3,2.9c0.6,2.7,1.9,5.2,3.9,7.2L87.2,129c5.6,5.5,14.5,5.5,20.1,0
				c5.5-5.6,5.5-14.5,0-20.1L81.4,84.5z"/>
		</g>
	</g>
</g>
</svg>
