<?xml version="1.0" encoding="utf-8"?>
<!-- Generator: Adobe Illustrator 24.1.0, SVG Export Plug-In . SVG Version: 6.00 Build 0)  -->
<svg version="1.1" id="Layer_1" xmlns="http://www.w3.org/2000/svg" xmlns:xlink="http://www.w3.org/1999/xlink" x="0px" y="0px"
	 viewBox="0 0 179.8 180.6" style="enable-background:new 0 0 179.8 180.6;" xml:space="preserve">
<style type="text/css">
	.st0{fill:#6E6F72;}
	.st1{fill:#6B9DD3;}
	.st2{fill:#016E90;}
	.st3{fill:none;}
	.st4{fill:#EEC540;}
	.st5{enable-background:new    ;}
	.st6{fill:#F2F3F1;}
</style>
<g id="Group_6" transform="translate(1548 -1438)">
	<g id="Rectangle_12">
		<path class="st0" d="M-1508.4,1439.3h100.6c21.4,0,38.7,17.3,38.7,38.7v100.6c0,21.4-17.3,38.7-38.7,38.7h-100.6
			c-21.4,0-38.7-17.3-38.7-38.7V1478C-1547.1,1456.6-1529.8,1439.3-1508.4,1439.3z"/>
	</g>
	<g id="Group_5" transform="translate(-1528.159 1462.295)">
		<g id="Group_4" transform="translate(0 0)">
			<g id="Ellipse_6">
				<circle class="st1" cx="17.6" cy="28.3" r="3.9"/>
			</g>
			<g id="Ellipse_7">
				<circle class="st1" cx="49.1" cy="38.2" r="3.9"/>
			</g>
			<g id="Ellipse_8">
				<circle class="st1" cx="80.5" cy="20.5" r="3.9"/>
			</g>
			<g id="Ellipse_9">
				<circle class="st1" cx="111.9" cy="34.2" r="3.9"/>
			</g>
			<g id="Ellipse_10">
				<circle class="st2" cx="17.6" cy="28.3" r="3.9"/>
			</g>
			<g id="Ellipse_11">
				<circle class="st2" cx="49.1" cy="38.2" r="3.9"/>
			</g>
			<g id="Ellipse_12">
				<circle class="st2" cx="80.5" cy="20.5" r="3.9"/>
			</g>
			<g id="Ellipse_13">
				<circle class="st2" cx="111.9" cy="34.2" r="3.9"/>
			</g>
			<g id="Path_37">
				<path class="st3" d="M21.6,28.3l23.6,9.8"/>
			</g>
			<g id="Path_38">
				<path class="st3" d="M53,38.2l23.6-17.7"/>
			</g>
			<g id="Path_39">
				<path class="st3" d="M84.4,20.5L108,34.2"/>
			</g>
			<g id="Path_40">
				<path class="st4" d="M111.9,28.3c-2.1,0-4,1.1-5.1,2.9l-20.6-12c-0.7-3.2-3.8-5.2-7-4.6c-2.3,0.5-4.2,2.4-4.6,4.7L54,35
					c-1.8-2.7-5.4-3.5-8.1-1.7c-0.9,0.6-1.6,1.4-2,2.3L23.4,27c-0.8-3.2-3.9-5.1-7.1-4.4s-5.1,3.9-4.4,7.1c0.8,3.2,3.9,5.1,7.1,4.4
					c1.7-0.4,3.1-1.5,3.9-3.1l20.5,8.5c0.8,3.2,3.9,5.1,7.1,4.4c2.3-0.5,4-2.4,4.4-4.7l20.7-15.5c1.8,2.7,5.4,3.5,8.1,1.7
					c0.8-0.5,1.4-1.2,1.9-2l20.6,12c0.7,3.2,3.8,5.2,7,4.6c3.2-0.7,5.2-3.8,4.6-7C117.1,30.3,114.7,28.3,111.9,28.3L111.9,28.3z
					 M19.6,28.4c0,1.1-0.9,2-2,2c-1.1,0-2-0.9-2-2c0-1.1,0.9-2,2-2C18.7,26.4,19.6,27.3,19.6,28.4L19.6,28.4z M49.1,40.1
					c-1.1,0-2-0.9-2-2v0c0-1.1,0.9-2,2-2c1.1,0,2,0.9,2,2C51,39.3,50.2,40.1,49.1,40.1z M80.5,22.4c-1.1,0-2-0.9-2-2s0.9-2,2-2
					c1.1,0,2,0.9,2,2l0,0C82.5,21.6,81.6,22.4,80.5,22.4L80.5,22.4L80.5,22.4z M111.9,36.2c-1.1,0-2-0.9-2-2c0-1.1,0.9-2,2-2
					c1.1,0,2,0.9,2,2l0,0C113.9,35.3,113,36.2,111.9,36.2C111.9,36.2,111.9,36.2,111.9,36.2L111.9,36.2z"/>
			</g>
			<g id="Path_41">
				<path class="st2" d="M96.2,40.1H82.5c-1.1,0-2,0.9-2,2c0,1.1,0.9,2,2,2c0,0,0,0,0,0h13.7c1.1,0,2-0.9,2-2
					C98.2,41,97.3,40.1,96.2,40.1C96.2,40.1,96.2,40.1,96.2,40.1z"/>
			</g>
			<g id="Path_42">
				<path class="st2" d="M96.2,34.2h-5.9c-1.1,0-2,0.9-2,2c0,1.1,0.9,2,2,2c0,0,0,0,0,0h5.9c1.1,0,2-0.9,2-2
					C98.2,35.1,97.3,34.2,96.2,34.2z"/>
			</g>
		</g>
		<g class="st5">
			<path class="st6" d="M28.3,84.4c-0.8,0.9-3.2,3.1-6.8,3.1c-0.7,0-2.2-0.1-3.8-0.8c-4.9-2.2-5.1-7.6-5.1-9.1
				c0-1.1,0.1-4.1,2.3-6.6c0.8-1.1,2.9-3.2,6.7-3.2c2.5,0,4.9,1,6.6,2.9c0.7,0.8,1.1,1.6,1.3,1.9l-3.7,1.8c-0.3-0.5-0.4-0.8-0.6-1
				c-0.3-0.5-1.5-1.8-3.4-1.8c-0.5,0-1.8,0.1-2.8,1.1c-0.8,0.7-1.8,2.3-1.8,4.8c0,0.2,0,0.7,0.1,1.3c0.3,2.6,1.4,3.7,2.4,4.3
				c0.3,0.2,1.1,0.5,2.1,0.5c2.6,0,3.6-2,4-2.7l3.7,1.9C29,83.5,28.6,84.1,28.3,84.4z"/>
			<path class="st6" d="M38.4,76.8c-0.1,0-0.8,0.1-1.3,0.3c-1.1,0.4-1.3,1.1-1.3,2.1v7.7h-4V73.2h3.9v1.4c0.3-0.3,0.7-0.7,1.6-1
				c1.1-0.4,1.9-0.5,2.4-0.6v3.6L38.4,76.8z"/>
			<path class="st6" d="M44.9,80.9c0,0.1,0,0.4,0.1,0.8c0.3,1.6,1.4,2.6,3.1,2.6c0.2,0,0.8,0,1.3-0.2c1.4-0.5,2-1.9,2.2-2.2l3.1,1.6
				c-0.6,0.8-0.8,1.2-1.2,1.6c-2,2.2-4.7,2.4-5.7,2.4c-0.4,0-1.4,0-2.5-0.4c-3.1-0.9-4.5-3.6-4.5-6.7c0-0.8,0.1-3.4,1.8-5.4
				c0.8-0.9,2.3-2.2,5.3-2.2c0.9,0,3.7,0.1,5.4,2.5c1.6,2.1,1.5,5,1.5,5.6H44.9z M49.1,75.9c-0.6-0.3-1-0.3-1.2-0.3
				c-1.6,0-2.3,1.2-2.6,1.7c-0.1,0.2-0.2,0.5-0.3,1.1h5.6C50.5,77.9,50.4,76.5,49.1,75.9z"/>
			<path class="st6" d="M65.2,86.9v-1.2c-0.3,0.2-0.6,0.4-0.8,0.6c-0.5,0.3-1.7,1-3.4,1c-2.5,0-3.6-1.3-4.1-2.3
				c-0.3-0.6-0.4-1.3-0.4-1.9c0-2.5,2.2-3.7,2.8-3.9c1-0.4,2.9-0.8,5.5-1.3v-0.8c0-0.5-0.1-1.7-1.6-1.7c-1.2,0-1.7,0.6-1.9,1
				c-0.1,0.1-0.1,0.3-0.2,0.6H57c0.1-0.6,0.1-1.7,1.1-2.8c1.1-1.1,2.6-1.3,3.1-1.4c0.8-0.1,1.4-0.1,1.8-0.1c1.9,0,4.5,0.4,5.4,2.4
				c0.2,0.4,0.3,0.7,0.3,1.5v8c0,1.2,0.1,1.6,0.4,2.1H65.2z M62.2,81.2c-0.2,0.1-0.3,0.1-0.5,0.2c-1,0.4-1.3,1-1.3,1.5
				c0,0.1,0,0.4,0.2,0.6c0.2,0.3,0.6,0.8,1.4,0.8c0.7,0,1.4-0.4,1.6-0.6c1.2-0.8,1.2-2.1,1.2-3.4L62.2,81.2z"/>
			<path class="st6" d="M76.9,76v6.2c0,0.6,0,0.9,0.1,1.1c0.2,0.4,0.9,0.4,0.9,0.4c0.5,0,0.9,0,1.4,0v3.1c-0.3,0.1-1.2,0.2-2.1,0.2
				c-0.3,0-0.6,0-0.8,0c-0.4,0-1.6,0-2.5-0.8c-1.1-0.9-1-2.3-1-3.6v-6.6h-2v-2.5h2v-4.3h4v4.3h2.7V76H76.9z"/>
			<path class="st6" d="M81.8,71.4v-3.1h4v3.1H81.8z M81.8,86.9V73.2h4v13.7H81.8z"/>
			<path class="st6" d="M96.3,86.9h-4.2l-4.5-13.7h4.3l2.4,9.3l2.3-9.3h4.2L96.3,86.9z"/>
			<path class="st6" d="M105.8,80.9c0,0.1,0,0.4,0.1,0.8c0.3,1.6,1.4,2.6,3.1,2.6c0.2,0,0.8,0,1.3-0.2c1.4-0.5,2-1.9,2.2-2.2
				l3.1,1.6c-0.6,0.8-0.8,1.2-1.2,1.6c-2,2.2-4.7,2.4-5.7,2.4c-0.4,0-1.4,0-2.5-0.4c-3.1-0.9-4.5-3.6-4.5-6.7c0-0.8,0.1-3.4,1.8-5.4
				c0.8-0.9,2.3-2.2,5.3-2.2c0.9,0,3.7,0.1,5.4,2.5c1.6,2.1,1.5,5,1.5,5.6H105.8z M109.9,75.9c-0.6-0.3-1-0.3-1.2-0.3
				c-1.6,0-2.3,1.2-2.6,1.7c-0.1,0.2-0.2,0.5-0.3,1.1h5.6C111.4,77.9,111.3,76.5,109.9,75.9z"/>
		</g>
		<g class="st5">
			<path class="st6" d="M14.7,110.1V91.5h4.6v18.6H14.7z"/>
			<path class="st6" d="M31.2,110.1v-7.8c0-0.9,0-1.6-0.2-2c-0.2-0.5-0.7-1.1-1.8-1.1c-0.2,0-0.9,0-1.4,0.4c-0.7,0.5-0.8,1.4-0.8,3
				v7.4H23V96.4h4.1v1.2c0.1-0.1,0.3-0.3,0.6-0.6c0.5-0.4,1.6-0.9,3.2-0.9c0.3,0,1.5,0,2.4,0.6c1.7,0.9,1.8,2.4,1.8,4.1v9.4H31.2z"
				/>
			<path class="st6" d="M47.4,110.1l0-1.3c-0.3,0.3-0.5,0.5-0.8,0.7c-1.2,0.9-2.4,0.9-2.9,0.9c-0.9,0-3.1-0.3-4.6-2.4
				c-0.7-0.9-1.3-2.3-1.3-4.7c0-0.8,0-4.4,2.6-6.3c0.5-0.4,1.5-1,3.1-1c1.9,0,3.1,1,3.6,1.4v-5.9h3.9v18.6H47.4z M46.6,100.1
				c-0.2-0.4-0.9-1.2-2.2-1c-0.8,0.1-1.4,0.5-1.8,1.2c-0.6,0.8-0.7,2.1-0.7,3c0,0.3,0,2.1,0.8,3.2c0.6,0.9,1.4,1,1.8,1
				c0.5,0,1-0.2,1.4-0.5c1.4-1.1,1.3-3.4,1.3-3.7C47.3,102.9,47.4,101.2,46.6,100.1z"/>
			<path class="st6" d="M62.9,110.1v-1.3c-0.3,0.3-0.4,0.5-0.6,0.6c-0.5,0.4-1.7,1.1-3.4,1.1c-0.3,0-1.8,0-2.9-0.8
				c-1.5-1.2-1.4-3.4-1.4-5.1v-8.2h4.1v8.6c0,0.9,0,1.5,0.8,2c0.2,0.1,0.6,0.3,1.2,0.3c1.3,0,2-0.7,2.2-1.2c0.1-0.3,0.2-0.7,0.2-1.1
				v-8.6h4v13.7H62.9z"/>
			<path class="st6" d="M81.2,108c-1.2,1.8-3.7,2.5-5.8,2.5c-0.7,0-3-0.1-5-1.4c-0.8-0.5-1.4-1.1-1.6-1.3l2.6-2.3
				c0.2,0.2,0.5,0.5,0.7,0.7c0.9,0.7,2.1,1.2,3.3,1.2c0.2,0,0.6,0,1-0.1c0.6-0.1,1.4-0.5,1.4-1.2c0-0.9-1.2-1.1-2.7-1.3
				c-2.9-0.5-4.2-1.1-4.9-2.5c-0.4-0.7-0.4-1.4-0.4-1.7c0-0.4,0.1-1.2,0.6-2.1c0.6-1.1,2.2-2.6,5.2-2.6c0.9,0,2.9,0.1,5,1.3
				c0.4,0.2,0.8,0.5,1.1,0.7l-2.5,2.3c-0.2-0.2-0.5-0.4-0.7-0.5c-0.7-0.4-1.8-0.8-2.7-0.8c-0.6,0-1.1,0.2-1.3,0.2
				c-0.5,0.2-0.6,0.6-0.6,0.8c0,0.3,0.2,0.5,0.4,0.7c0.4,0.3,1.4,0.4,1.8,0.5l1.8,0.4c2.2,0.5,4.1,1.6,4.1,4.1
				C81.9,106.8,81.5,107.6,81.2,108z"/>
			<path class="st6" d="M88.8,99.2v6.2c0,0.6,0,0.9,0.1,1.1c0.2,0.4,0.9,0.4,0.9,0.4c0.5,0,0.9,0,1.4,0v3.1
				c-0.3,0.1-1.2,0.2-2.1,0.2c-0.3,0-0.6,0-0.8,0c-0.4,0-1.6,0-2.5-0.8c-1.1-0.9-1-2.3-1-3.6v-6.6h-2v-2.5h2v-4.3h4v4.3h2.7v2.5
				H88.8z"/>
			<path class="st6" d="M100.2,100c-0.1,0-0.8,0.1-1.3,0.3c-1.1,0.4-1.3,1.1-1.3,2.1v7.7h-4V96.4h3.9v1.4c0.3-0.3,0.7-0.7,1.6-1
				c1.1-0.4,1.9-0.5,2.4-0.6v3.6L100.2,100z"/>
			<path class="st6" d="M110,111.2c-0.3,1-0.6,1.8-1.3,2.6c-0.9,0.9-1.7,1.1-2.9,1.1h-2.9v-3.2h1.8c0.9,0,1.3-0.5,1.3-1
				c0-0.4-0.1-0.7-0.3-1.3c-0.1-0.4-0.3-0.8-0.4-1.3l-3.6-11.6h4.3l2.3,9.8l2.3-9.8h4.3L110,111.2z"/>
		</g>
	</g>
</g>
</svg>
