<?xml version="1.0" encoding="utf-8"?>
<!-- Generator: Adobe Illustrator 24.1.0, SVG Export Plug-In . SVG Version: 6.00 Build 0)  -->
<svg version="1.1" id="Layer_1" xmlns="http://www.w3.org/2000/svg" xmlns:xlink="http://www.w3.org/1999/xlink" x="0px" y="0px"
	 viewBox="0 0 200 200" style="enable-background:new 0 0 200 200;" xml:space="preserve">
<style type="text/css">
	.st0{fill:#016E90;}
	.st1{fill:#F2F3F1;}
</style>
<g id="Group_32" transform="translate(388 0.438)">
	
		<ellipse id="Ellipse_14-2" transform="matrix(0.7071 -0.7071 0.7071 0.7071 -154.7542 -174.4857)" class="st0" cx="-288" cy="99.6" rx="94.3" ry="94.3"/>
	<g id="Group_30-2" transform="translate(20.683 15)">
		<g id="Group_29-2">
			<path id="Path_54-2" class="st1" d="M-310.1,84.5l-25.8-24.4c-5.4-5.6-5.2-14.6,0.4-20c5.5-5.3,14.1-5.3,19.6,0l36.5,34.5
				c2,2,3.3,4.5,3.9,7.2c0.2,0.9,0.3,1.9,0.3,2.8c0,1-0.1,1.9-0.3,2.9c-0.6,2.7-1.9,5.2-3.9,7.2l-36.4,34.4
				c-5.6,5.5-14.5,5.5-20.1,0c-5.5-5.6-5.5-14.5,0-20.1L-310.1,84.5z"/>
		</g>
	</g>
</g>
</svg>
