<?xml version="1.0" encoding="utf-8"?>
<!-- Generator: Adobe Illustrator 24.1.0, SVG Export Plug-In . SVG Version: 6.00 Build 0)  -->
<svg version="1.1" id="Layer_1" xmlns="http://www.w3.org/2000/svg" xmlns:xlink="http://www.w3.org/1999/xlink" x="0px" y="0px"
	 viewBox="0 0 179.8 180.6" style="enable-background:new 0 0 179.8 180.6;" xml:space="preserve">
<style type="text/css">
	.st0{fill:#6E6F72;}
	.st1{enable-background:new    ;}
	.st2{fill:#F2F3F1;}
	.st3{fill:#016E90;}
	.st4{fill:#EEC540;}
</style>
<g id="Group_11" transform="translate(-2119 161)">
	<path id="Rectangle_12" class="st0" d="M2159.2-157.1h98.5c20.9,0,37.9,17,37.9,37.9v98.5c0,20.9-17,37.9-37.9,37.9h-98.5
		c-20.9,0-37.9-17-37.9-37.9v-98.5C2121.3-140.2,2138.3-157.1,2159.2-157.1z"/>
	<g id="Group_10" transform="translate(2 9)">
		<g id="Group_5" transform="translate(2138.841 -136.705)">
			<g class="st1">
				<path class="st2" d="M24.2,103c-0.8,0.9-3.1,3-6.6,3c-0.6,0-2.1-0.1-3.7-0.8c-4.8-2.2-5-7.4-5-8.9c0-1.1,0.1-4,2.2-6.5
					c0.8-1,2.9-3.1,6.6-3.1c2.4,0,4.8,1,6.4,2.8c0.7,0.8,1.1,1.6,1.3,1.9l-3.6,1.8c-0.3-0.5-0.4-0.8-0.6-1c-0.3-0.5-1.4-1.8-3.3-1.8
					c-0.5,0-1.7,0.1-2.8,1.1c-0.7,0.7-1.7,2.2-1.7,4.7c0,0.2,0,0.7,0.1,1.2c0.3,2.5,1.4,3.6,2.4,4.2c0.3,0.2,1,0.5,2,0.5
					c2.6,0,3.5-2,3.9-2.7l3.6,1.8C24.8,102.2,24.4,102.7,24.2,103z"/>
				<path class="st2" d="M41.7,104.1c-1,0.8-2.7,1.9-5.7,1.9c-1.1,0-4.1-0.2-6.4-2.6c-2.4-2.6-2.6-6-2.6-7.1c0-1,0.1-3.5,1.7-5.9
					c0.9-1.4,3-3.7,7.3-3.7c3.5,0,5.5,1.5,6.5,2.5c1.8,1.8,2.7,4.8,2.7,7.3C45.2,99.3,44,102.3,41.7,104.1z M39.5,92.2
					c-0.2-0.3-0.8-1-1.8-1.4c-0.8-0.3-1.4-0.3-1.8-0.3c-1,0-1.7,0.3-2,0.5c-1.8,1-2.5,3.3-2.5,5.2c0,2.5,0.8,3.8,1.5,4.6
					c0.8,0.9,1.9,1.3,3.1,1.3c0.6,0,2-0.2,3.1-1.4c1-1.1,1.4-2.6,1.4-4C40.7,94.5,40,93,39.5,92.2z"/>
				<path class="st2" d="M57.1,105.5h-4.6l-6.2-18.2h4.8l3.8,12.9l3.7-12.9h4.8L57.1,105.5z"/>
				<path class="st2" d="M65.2,105.5V87.3h4.5v18.2H65.2z"/>
				<path class="st2" d="M87.5,102.8c-0.6,0.7-1.9,1.9-4.1,2.4c-1,0.2-1.9,0.3-2.9,0.3h-7.1V87.3h5.8c0.6,0,1.1,0,1.6,0
					c0.8,0.1,3.8,0.1,6,2c0.3,0.3,0.9,0.7,1.4,1.6c0.6,1,1.4,2.6,1.4,5.3C89.6,99.7,88.5,101.7,87.5,102.8z M84,92.6
					c-0.3-0.3-0.8-0.9-1.8-1.2c-0.9-0.3-1.6-0.3-2.5-0.3h-1.8v10.7h1.4c1.3,0,2.9-0.1,4.1-1c0.9-0.7,1.7-2,1.7-4.5
					C85,95,84.8,93.7,84,92.6z"/>
				<path class="st2" d="M91.3,99.4v-3.7H99v3.7H91.3z"/>
				<path class="st2" d="M106,105.5V92.7c-0.4,0.2-0.6,0.3-1,0.3c-0.7,0.2-2,0.2-2.7,0.2l0-2.7l0.9-0.1c1.2-0.1,1.9-0.5,2.3-0.8
					c0.2-0.1,0.6-0.4,0.9-0.9c0.2-0.3,0.3-0.5,0.5-0.9h3.1v17.5H106z"/>
				<path class="st2" d="M126.8,102.4c-0.4,0.7-0.8,1.3-1.4,1.9c-0.8,0.7-2,1.5-4.3,1.5c-3.1,0-4.4-1.8-4.9-3
					c-0.3-0.8-0.4-1.5-0.5-1.8l4.1-0.4c0,0.3-0.1,1.1,0.6,1.7c0.4,0.4,0.8,0.4,1,0.4c0.2,0,0.5,0,0.9-0.2c0.7-0.4,1-1,1.2-1.6
					c0.3-1,0.4-1.7,0.5-3.6c-0.2,0.3-0.3,0.4-0.3,0.5c-0.4,0.5-1.6,1.5-3.5,1.5c-2.1,0-3.8-1.3-4.5-3.2c-0.1-0.4-0.3-1.1-0.3-2.1
					c0-0.7,0-2.4,1.3-4c0.2-0.2,0.6-0.7,1.2-1.1c0.6-0.4,1.9-1,3.8-1c0.5,0,2,0.1,3.3,0.9c1.8,1.2,3,3.4,3,7.7
					C127.9,96.7,127.9,100.2,126.8,102.4z M122.6,91.2c-0.5-0.4-0.9-0.4-1.2-0.4c-0.2,0-0.6,0-1,0.3c-0.6,0.3-1.1,1.1-1.1,2.5
					c0,1.5,0.6,2.2,1.2,2.5c0.2,0.1,0.5,0.2,1,0.2c0.9-0.1,1.9-0.7,1.9-2.7C123.4,92.2,123,91.6,122.6,91.2z"/>
			</g>
		</g>
		<g id="Group_9" transform="translate(1875 -236)">
			<path id="Path_43" class="st3" d="M331.4,127.3h8v24.1h-8V127.3z"/>
			<path id="Path_44" class="st3" d="M347.5,105.9h8v45.6h-8V105.9z"/>
			<path id="Path_45" class="st3" d="M315.3,116.6h8v34.9h-8V116.6z"/>
			<path id="Path_46" class="st3" d="M364.9,160.2h-59c-1.5,0-2.7,1.2-2.7,2.7c0,1.5,1.2,2.7,2.7,2.7h59c1.5,0,2.7-1.2,2.7-2.7
				C367.6,161.4,366.4,160.2,364.9,160.2L364.9,160.2z"/>
			<path id="Path_47" class="st3" d="M305.9,173.6h24.1c1.5,0,2.7-1.2,2.7-2.7s-1.2-2.7-2.7-2.7h-24.1c-1.5,0-2.7,1.2-2.7,2.7
				S304.5,173.6,305.9,173.6z"/>
			<path id="Path_48" class="st3" d="M340.8,173.6c1.5,0,2.7-1.2,2.7-2.7s-1.2-2.7-2.7-2.7h-2.7c-1.5,0-2.7,1.2-2.7,2.7
				s1.2,2.7,2.7,2.7H340.8z"/>
			<path id="Path_49" class="st4" d="M363.6,148.8h-5.4v-42.9c0-1.5-1.2-2.7-2.7-2.7h-8c-1.5,0-2.7,1.2-2.7,2.7v42.9h-2.7v-21.5
				c0-1.5-1.2-2.7-2.7-2.7h-8c-1.5,0-2.7,1.2-2.7,2.7v21.4H326v-32.2c0-1.5-1.2-2.7-2.7-2.7h-8c-1.5,0-2.7,1.2-2.7,2.7v32.2h-5.4
				v-42.9c0-1.5-1.2-2.7-2.7-2.7s-2.7,1.2-2.7,2.7v45.6c0,1.5,1.2,2.7,2.7,2.7h59c1.5,0,2.7-1.2,2.7-2.7S365.1,148.8,363.6,148.8
				L363.6,148.8z M320.7,148.8H318v-29.5h2.7V148.8z M336.8,148.8h-2.7V130h2.7V148.8z M352.8,148.8h-2.7v-40.2h2.7L352.8,148.8z"/>
		</g>
	</g>
</g>
</svg>
